<svg xmlns="http://www.w3.org/2000/svg" viewBox="0 0 669.5 709.02"><defs><style>.cls-1,.cls-11{fill:#fff6e9;}.cls-2{fill:#000d3a;}.cls-3{fill:#704311;}.cls-4{fill:#7c7c7c;}.cls-23,.cls-5{fill:#fff;}.cls-10,.cls-12,.cls-19,.cls-21,.cls-27,.cls-28,.cls-29,.cls-6,.cls-7{fill:none;}.cls-6{stroke:#0b1035;}.cls-10,.cls-11,.cls-12,.cls-19,.cls-23,.cls-27,.cls-28,.cls-29,.cls-6,.cls-7{stroke-miterlimit:10;}.cls-7{stroke:#000;}.cls-10,.cls-11,.cls-19,.cls-21,.cls-27,.cls-28,.cls-29,.cls-7{stroke-linecap:round;}.cls-8{fill:#00126d;}.cls-9{fill:#ffff0d;}.cls-10,.cls-11{stroke:#ba9e45;stroke-width:0.75px;}.cls-12{stroke:#000d3a;}.cls-13{fill:#004ed6;}.cls-14{fill:#009ed6;}.cls-15{fill:#00cbff;}.cls-16{fill:#fafafa;}.cls-17{fill:#001aaf;}.cls-18{fill:#002938;}.cls-19{stroke:#004ed6;stroke-width:3px;}.cls-20{fill:#53c1de;}.cls-21{stroke:#fff;stroke-linejoin:round;stroke-width:4px;}.cls-22{fill:#f94b58;}.cls-23{stroke:#ccc;}.cls-24{fill:#80f9f9;}.cls-25{fill:#66dd7f;}.cls-26{fill:#ffa608;}.cls-27,.cls-28,.cls-29{stroke:#00cbff;stroke-width:5px;}.cls-28{stroke-dasharray:15.41 15.41;}.cls-29{stroke-dasharray:15 15;}</style></defs><title>h730_4_2</title><g id="レイヤー_2" data-name="レイヤー 2"><g id="_5th" data-name="5th"><rect class="cls-1" x="425.35" y="675.33" width="34.03" height="10.04" rx="5.02" ry="5.02" transform="translate(1211.78 938.34) rotate(141.57)"/><path class="cls-2" d="M454,691.46l41-31.25c4.76-3.77,4.92-11.42,1.14-16.18h0a11,11,0,0,0-15.45-1.8l-40.39,32Z"/><path class="cls-1" d="M412.76,692.6l-14.62-.35a5.87,5.87,0,0,1-5.73-6h0a5.87,5.87,0,0,1,6-5.73l15.05,2.12c3.24.08,5.37,1,5.3,4.24h0A5.87,5.87,0,0,1,412.76,692.6Z"/><path class="cls-1" d="M393.39,696l-29.6-4a5.87,5.87,0,0,1-5.73-6h0a5.87,5.87,0,0,1,6-5.72l32.19-.48c3.24.08,2.94,4.41,2.87,7.65h0C399.05,690.66,396.63,696.11,393.39,696Z"/><path class="cls-1" d="M354,549.59c-2.86,12.28,4.95,26.33,3.45,32.77-.85,3.65-11.19.85-11.83,3.95-5.52,26.79-25.53,28.8-52,23.62-33.55-6.56-46.18-51.55-48.93-59.09-11.39-31.32,15.6-61.59,48.93-61.59S361.53,517.13,354,549.59Z"/><path class="cls-3" d="M357.43,531.15c0,10.27-13.87-9.94-26-9.48-15.54.59-17.83.24-34.68,14.19-.63.53-9.61,44.38-10.24,44.93-.35.3-7.89-29.17-7.89-29.17-.83,15.9-2.88,48.34-4.73,52-1,2-8.67-8.67-8.67-8.67a38.84,38.84,0,0,0-4.73,8.67c-1.74,4-8-19-7.47-15.57,1.35,8.6,2.89,10.65-3.56,4.53-7.5-7.1-19.29-52.05-19.29-61.46,0-23.91,39.32-49.68,74.46-49.68S357.43,507.24,357.43,531.15Z"/><path class="cls-1" d="M278.6,551.62l7.1,30.74C254.17,564.24,278.6,551.62,278.6,551.62Z"/><rect class="cls-1" x="266.95" y="593.13" width="33.11" height="36.26"/><polygon class="cls-4" points="308.73 709 263.01 709 255.13 626.24 316.61 642.79 308.73 709"/><path class="cls-4" d="M261.09,657.26H332a5.52,5.52,0,0,1,5.52,5.52v7.08a5.52,5.52,0,0,1-5.52,5.52H261.09a0,0,0,0,1,0,0V657.26a0,0,0,0,1,0,0Z" transform="translate(486.99 -39.62) rotate(39.08)"/><rect class="cls-5" x="363.42" y="679.92" width="9.9" height="15.02" transform="translate(16.53 -8.6) rotate(1.37)"/><path class="cls-4" d="M324.88,678.36h41a0,0,0,0,1,0,0v18.13a0,0,0,0,1,0,0h-41a8.7,8.7,0,0,1-8.7-8.7v-.72A8.7,8.7,0,0,1,324.88,678.36Z" transform="translate(16.42 -7.9) rotate(1.36)"/><polygon class="cls-5" points="303.71 635 264.58 612.84 266.78 604 307.01 629.87 303.71 635"/><path class="cls-6" d="M281.13,640.07c-18.46-3.55-12.24,13.67-12.24,13.67l.62.93L309,686"/><path class="cls-4" d="M317.52,652.3l-61.74-25.11a4.29,4.29,0,0,1-2.36-5.58l.25-.6c2.66-6.54,5.62-10.58,10.32-11.83a3.06,3.06,0,0,1,2.45.4l54.11,34.79Z"/><line class="cls-6" x1="266.95" y1="631.75" x2="309.51" y2="649.1"/><path class="cls-6" d="M280.56,640a7.18,7.18,0,0,1,1.53.7l31,24.59"/><path class="cls-7" d="M332,558.58c5-10.73,12.71-3.16,12.71-3.16"/><path class="cls-1" d="M410.34,549.59c2.86,12.28-4.95,26.33-3.44,32.77.85,3.65,11.18.85,11.82,3.95,5.52,26.79,25.54,28.8,52,23.62,33.54-6.56,46.18-51.55,48.92-59.09,11.4-31.32-15.6-61.59-48.92-61.59S402.79,517.13,410.34,549.59Z"/><path class="cls-1" d="M485.72,551.62l-7.1,30.74C510.15,564.24,485.72,551.62,485.72,551.62Z"/><rect class="cls-1" x="464.27" y="593.13" width="33.11" height="36.26" transform="translate(961.64 1222.52) rotate(-180)"/><path class="cls-8" d="M450.69,709H496.4l7-78.51c.47-5.3-3.55-9.81-8.52-9.56l-14.78.74c-20,1-35.15,19.64-33.34,41Z"/><path class="cls-9" d="M406.59,533.33c1.84,23.9,9.11,15.33,18.2,8.4,3-2.32,12.85,11.91,16.18,11.24,3.81-.76,12.28-13.1,12.28-13.1,4.7-2.44,24,40.37,24.59,40.92.22.19,3.13-3.84,5.22-6.79a1,1,0,0,1,1.85.63,62.71,62.71,0,0,0,5.54,29c1,2,8.67-8.67,8.67-8.67a38.84,38.84,0,0,1,4.73,8.67c1.74,4,8-19,7.47-15.57-1.35,8.6-2.89,10.65,3.56,4.53,7.5-7.1,19.29-52.05,19.29-61.46,0-23.91-26.08-54.31-74.46-49.68C424.72,484.82,404.75,509.49,406.59,533.33Z"/><path class="cls-7" d="M432.48,558.39c-5.36-10.56-12.81-2.74-12.81-2.74"/><path class="cls-1" d="M402.19,692.14l31.81.46a4.85,4.85,0,0,0,4.52-5.09h0a4.79,4.79,0,0,0-4.62-5l-31.8.49a4.85,4.85,0,0,0-4.52,5.09h0C397.61,690.92,399.4,691.11,402.19,692.14Z"/><path class="cls-1" d="M397.88,681.15c-4.25-3.32-5.77-7.11-10.17-6s-8.2,3.39-6.61,5.2c1.8,2.06,7.49-.62,7.49-.62l3.26,2.59"/><path class="cls-10" d="M380.74,679.36c.2,3.38,6.18,1.12,7.85.36.4-.27,2.85,2.18,2.85,2.18"/><path class="cls-1" d="M380.32,694.29c6.37,6.52,14.66.76,14.66.76"/><line class="cls-11" x1="392.37" y1="684.08" x2="397.02" y2="687.16"/><line class="cls-11" x1="390.59" y1="686.36" x2="395.23" y2="689.44"/><line class="cls-11" x1="388.8" y1="688.64" x2="393.45" y2="691.72"/><path class="cls-11" d="M380.65,691.46c2.3-3.34,3.22.88,3.22.88,2.3-3.33,3.22.88,3.22.88,2.94-3.16,3.86,1.06,3.86,1.06,2.94-3.16,3.21.89,3.21.89"/><rect class="cls-1" x="467.35" y="686.98" width="34.03" height="10.04" transform="translate(1176.36 207.64) rotate(90)"/><path class="cls-8" d="M494.09,694.35,496,642.8c.1-6.07-6.15-11-12.67-11.15h0c-6.52-.1-11.89,4.74-12,10.81L470.49,694Z"/><path class="cls-12" d="M470,693l1-51c4-11,13.5-10.5,13.5-10.5a12.72,12.72,0,0,1,12,11L495.14,693"/><circle class="animation-circle1" cx="381" cy="104.5" r="95"/><circle class="animation-circle2" cx="381" cy="104.93" r="89.79"/><circle class="animation-circle3" cx="380.99" cy="104.93" r="83.72"/><circle class="cls-16" cx="380.99" cy="105.33" r="77.17"/><rect class="cls-13" x="378.5" y="55.48" width="4.56" height="31.9"/><polygon class="cls-17" points="364.09 93.82 342.37 72.53 344.3 70.63 366.03 91.93 364.09 93.82"/><rect class="cls-18" x="328.55" y="107.66" width="29.28" height="1.26"/><rect class="cls-15" x="400.28" y="104.27" width="36.19" height="8.04"/><polygon class="cls-14" points="397.47 96.35 392.96 91.93 417.26 68.11 421.77 72.53 397.47 96.35"/><path d="M351.81,141.59h15.48v-1.41H351.81Z"/><path d="M329.48,141.59h1.58L324,126.47h-1l-7.13,15.12h1.58l6.05-12.83Z"/><path d="M351.81,134.64h8.46v-1.41h-8.46Z"/><path d="M403.73,126.88v7.06a7.8,7.8,0,0,0,15.6,0v-7.06H417.9v7.06a6.37,6.37,0,0,1-12.73,0v-7.06Z"/><path d="M351.81,127.88h15.48v-1.41H351.81Z"/><path d="M429.81,141H445.2v-1l-12.83-11.66H445.2v-1.41H429.81v1l12.87,11.69H429.81Z"/><path d="M391.79,141.59h.95V126.47H391.3V139l-11.84-12.52h-1.12v15h1.44V128.88Z"/><path d="M342.91,141.59h1.58l-7.1-15.12h-1L333,133.7h1.58l2.33-4.94Z"/><line class="cls-19" x1="1.5" y1="131.5" x2="45.54" y2="142.4"/><path class="cls-13" d="M52.53,124.42a14.21,14.21,0,0,1-3.63,5.12c-4.15,3.93-9.41,3.36-13.44-.9-4.23-4.47-4.77-10.06-.92-13.7,4.39-4.16,9.32-1.2,11.67,1.29.47.49.79.88,1.09,1.25l-9.7,9.18c3.76,3.92,7.42,3.28,10,.86a12.31,12.31,0,0,0,3.05-4.27Zm-8.86-6.58c-1.8-2-5-3.7-7.79-1-2.61,2.47-1.41,6,.24,8.2Z"/><path class="cls-13" d="M53.83,97.31l1.83,11.36,11.79,2.76L65,113.78l-5.29-1.29c-1.34-.36-2.55-.7-3.94-1.12l-.05,0c.4,1.31.62,2.59.91,4l1,5.3L55.25,123l-2-11.89L42,108.52l2.43-2.3,5.06,1.21c1.29.31,2.43.62,3.69,1l.08-.08c-.35-1.25-.59-2.51-.81-3.74l-1-5.07Z"/><path class="cls-13" d="M76.08,96.82A27.12,27.12,0,0,0,79.5,100l-2,1.88-1.94-1.63-.08.08a6.82,6.82,0,0,1-2.18,6.12,5.44,5.44,0,0,1-8-.11c-3.25-3.43-2-8.1,3.28-13.08-1.14-1.2-3.71-3.92-7-.85a8.46,8.46,0,0,0-2.51,4.31l-1.94-1a11.24,11.24,0,0,1,3.2-5.31c4-3.82,7.77-2,10.45.87Zm-5.93-2C67.46,97.4,64.46,101,67.3,104a3.27,3.27,0,0,0,5,.32,4.81,4.81,0,0,0,.44-6.77Z"/><path class="cls-13" d="M102.87,77.9l-2.14,2-7.8-8.23c-2.62-2.77-5.3-3.61-7.44-1.58-1.75,1.66-1.78,4.82.27,7l8.49,9-2.15,2-8.31-8.78C81.63,77,79,76.23,77,78.13c-1.85,1.76-1.77,5.15.34,7.37l8.26,8.73-2.14,2-10-10.59c-1.39-1.46-2.43-2.46-3.6-3.58l1.91-1.81,2.31,2.18.08-.08A6.52,6.52,0,0,1,76,75.66a5.6,5.6,0,0,1,6.59-.84l0,0a6.9,6.9,0,0,1,1.88-7.18c1.75-1.66,5.59-3.16,10.22,1.73Z"/><path class="cls-13" d="M97.91,60.14a7.28,7.28,0,0,1,2.26-7.35c3.38-3.19,8.55-2.59,12.69,1.77,5,5.23,4.17,10.53,1,13.5a6.66,6.66,0,0,1-6.44,1.78l0,0,7.37,7.79-2.17,2.06L97.93,64.24c-1.76-1.86-3.17-3.25-4.46-4.5l2-1.86,2.43,2.31Zm6,6a5.54,5.54,0,0,0,8,.45c2.8-2.65,2.06-6.51-1.15-9.91-2.8-2.95-6.77-4.16-9.53-1.53-2.44,2.3-1.86,6.21.1,8.27Z"/><path class="cls-13" d="M125.23,56.73l-2.17,2.06-19.8-20.92,2.17-2Z"/><path class="cls-13" d="M139.06,42.49a14.21,14.21,0,0,1-3.63,5.12C131.28,51.55,126,51,122,46.71c-4.24-4.47-4.77-10.06-.93-13.7,4.39-4.15,9.33-1.19,11.68,1.29.47.5.79.89,1.08,1.25l-9.69,9.18c3.76,3.93,7.42,3.29,10,.86a12.45,12.45,0,0,0,3-4.27Zm-8.86-6.58c-1.81-2-5-3.7-7.79-1-2.61,2.47-1.41,6,.24,8.2Z"/><line class="cls-19" x1="132.5" y1="1.5" x2="146.77" y2="44.52"/><path class="cls-20" d="M208.37,238c-.71-.24-1.41-.47-2.13-.67.12-.48.23-1,.33-1.45,1.61-7.81.56-14.09-3-16.16s-9.08.08-14.76,5c-.56.49-1.11,1-1.64,1.51-.36-.35-.73-.68-1.1-1-6-5.29-11.93-7.52-15.51-5.45s-4.46,7.91-3,15.3q.21,1.1.48,2.19c-.84.24-1.66.49-2.44.77-7,2.43-11.45,6.25-11.45,10.21s4.79,8.19,12.07,10.68c.59.2,1.18.38,1.78.55-.19.78-.36,1.57-.51,2.36-1.38,7.27-.31,13,3.12,15s9.49-.06,15.28-5.12c.46-.4.92-.83,1.38-1.27.58.56,1.17,1.1,1.78,1.63,5.61,4.82,11.15,6.77,14.57,4.79s4.69-8.25,3.2-15.79c-.11-.58-.25-1.17-.4-1.77l1.23-.38c7.57-2.51,12.49-6.56,12.49-10.7,0-4-4.61-7.82-11.73-10.27Z"/><path class="cls-5" d="M206.72,256.32l-1.1.35a68.89,68.89,0,0,0-3.34-8.36,67.89,67.89,0,0,0,3.21-8.24c.67.2,1.33.41,2,.62,6.1,2.1,9.83,5.21,9.83,7.61s-4,5.86-10.55,8ZM204,261.69a23.62,23.62,0,0,1,.32,8.71c-.39,2.12-1.18,3.53-2.16,4.1-2.08,1.2-6.52-.36-11.32-4.49-.55-.47-1.1-1-1.66-1.51a66,66,0,0,0,5.53-7,65.85,65.85,0,0,0,8.94-1.37c.13.54.25,1.07.35,1.59Zm-27.4,12.6c-2,.72-3.65.74-4.63.17-2.08-1.2-2.94-5.83-1.76-12q.21-1.1.48-2.19a65.87,65.87,0,0,0,8.89,1.29,68.91,68.91,0,0,0,5.66,7L184,269.67a24.05,24.05,0,0,1-7.39,4.62Zm-9.52-18a23.8,23.8,0,0,1-7.69-4.09c-1.64-1.4-2.47-2.79-2.47-3.92,0-2.41,3.58-5.47,9.56-7.55.75-.26,1.51-.5,2.27-.72a67.69,67.69,0,0,0,3.22,8.34,66.9,66.9,0,0,0-3.26,8.45C168.17,256.66,167.63,256.49,167.09,256.31Zm3.19-21.72c-1.24-6.34-.41-11.12,1.66-12.32s7.09.55,12.23,5.12c.33.29.66.59,1,.91a67.68,67.68,0,0,0-5.62,6.95,69.06,69.06,0,0,0-8.8,1.37c-.17-.67-.32-1.35-.46-2Zm28.46,7c-.64-1.12-1.31-2.22-2-3.3a61,61,0,0,1,6,1.05,56.34,56.34,0,0,1-2.11,5.68c-.61-1.15-1.24-2.3-1.9-3.43Zm-11.6-11.31A59.76,59.76,0,0,1,191,235q-3.9-.18-7.8,0c1.28-1.69,2.6-3.26,3.92-4.69Zm-11.68,11.33c-.65,1.12-1.27,2.26-1.87,3.41-.82-2-1.52-3.86-2.09-5.71,1.88-.42,3.89-.77,6-1C176.78,239.41,176.1,240.51,175.46,241.64Zm2.08,16.84a59.51,59.51,0,0,1-6.08-1c.58-1.88,1.3-3.83,2.14-5.82.59,1.15,1.22,2.29,1.87,3.41S176.82,257.37,177.54,258.48Zm9.68,8c-1.34-1.44-2.67-3-4-4.75,1.26,0,2.55.07,3.86.07s2.67,0,4-.08C189.8,263.46,188.51,265.06,187.22,266.48Zm13.45-14.9a60,60,0,0,1,2.21,5.8,58.21,58.21,0,0,1-6.15,1.05c.7-1.1,1.37-2.22,2-3.36s1.3-2.31,1.91-3.49Zm-4.36,2.09c-1,1.73-2.05,3.44-3.16,5.1-2,.14-4,.22-6,.22s-4.05-.07-6-.19c-1.14-1.67-2.21-3.37-3.22-5.12s-1.95-3.51-2.82-5.31c.87-1.81,1.81-3.59,2.81-5.32h0q1.5-2.61,3.2-5.1c2-.15,4-.22,6-.22s4,.08,6,.22q1.67,2.49,3.17,5.08t2.85,5.3q-1.32,2.71-2.84,5.34Zm5.82-31.48c2.21,1.27,3.07,6.41,1.68,13.15-.09.44-.19.88-.3,1.31a67.3,67.3,0,0,0-8.82-1.39,65.27,65.27,0,0,0-5.58-7c.5-.48,1-.94,1.52-1.39,4.87-4.24,9.42-5.92,11.5-4.72Z"/><path class="cls-20" d="M187.11,242.41a5.89,5.89,0,1,1-5.9,5.89,5.89,5.89,0,0,1,5.9-5.89"/><rect class="cls-13" x="90" y="234" width="28" height="28" rx="6" ry="6"/><polyline class="cls-21" points="93 232.91 100 251 130 231"/><rect class="cls-5" x="154" y="296.5" width="63" height="63" rx="14.74" ry="14.74"/><rect class="cls-22" x="183.63" y="312" width="4.74" height="30.5"/><rect class="cls-22" x="183.63" y="311.66" width="4.74" height="31.18" transform="translate(-141.25 513.25) rotate(-90)"/><rect class="cls-23" x="195" y="348" width="35" height="15" rx="7.5" ry="7.5"/><path class="cls-24" d="M212,348h-9.5a7.5,7.5,0,0,0,0,15H212Z"/><rect class="cls-23" x="186" y="339" width="35" height="15" rx="7.5" ry="7.5" transform="translate(-161.9 179.29) rotate(-34.98)"/><path class="cls-25" d="M198.28,339.91l-8.08,5.65A8.2,8.2,0,0,0,199.59,359l8.08-5.66Z"/><rect class="cls-13" x="90" y="315" width="28" height="28" rx="6" ry="6"/><polyline class="cls-21" points="93 313.91 100 332 130 312"/><circle class="cls-9" cx="186.51" cy="405.05" r="28.95"/><path class="cls-26" d="M185.54,417.28V411.2h-6.2v-1.51h6.2V407h-6.2v-1.51h5.32l-7.17-11.34h3l5,8.44c.57,1,.88,1.73,1.35,2.74H187c.47-.88.91-1.8,1.48-2.83l5.19-8.35h3.06L189,405.51h5.25V407h-6.17v2.67h6.17v1.51h-6.17v6.08Z"/><rect class="cls-13" x="90" y="391" width="28" height="28" rx="6" ry="6"/><polyline class="cls-21" points="93 389.91 100 408 130 388"/><path class="cls-20" d="M648.32,238c-.71-.24-1.41-.47-2.13-.67.12-.48.23-1,.33-1.45,1.61-7.81.56-14.09-3-16.16s-9.07.08-14.76,5c-.56.49-1.11,1-1.64,1.51-.36-.35-.72-.68-1.1-1-6-5.29-11.93-7.52-15.51-5.45s-4.46,7.91-3,15.3q.21,1.1.48,2.19c-.84.24-1.66.49-2.44.77-7,2.43-11.44,6.25-11.44,10.21s4.78,8.19,12.06,10.68c.59.2,1.19.38,1.79.55-.2.78-.37,1.57-.52,2.36-1.38,7.27-.31,13,3.12,15s9.49-.06,15.28-5.12c.46-.4.92-.83,1.38-1.27.58.56,1.17,1.1,1.78,1.63,5.61,4.82,11.15,6.77,14.58,4.79s4.68-8.25,3.19-15.79c-.11-.58-.25-1.17-.39-1.77l1.22-.38c7.57-2.51,12.49-6.56,12.49-10.7,0-4-4.61-7.82-11.73-10.27Z"/><path class="cls-5" d="M646.68,256.32l-1.11.35a67.3,67.3,0,0,0-3.34-8.36,66.29,66.29,0,0,0,3.21-8.24c.67.2,1.33.41,2,.62,6.11,2.1,9.83,5.21,9.83,7.61s-4,5.86-10.55,8ZM644,261.69a23.81,23.81,0,0,1,.31,8.71c-.39,2.12-1.18,3.53-2.16,4.1-2.08,1.2-6.52-.36-11.32-4.49-.55-.47-1.1-1-1.66-1.51a66,66,0,0,0,5.53-7,65.61,65.61,0,0,0,8.94-1.37q.2.81.36,1.59Zm-27.41,12.6c-2,.72-3.65.74-4.63.17-2.08-1.2-2.94-5.83-1.76-12q.21-1.1.48-2.19a65.87,65.87,0,0,0,8.89,1.29,70.3,70.3,0,0,0,5.66,7c-.41.39-.82.78-1.25,1.16a24.05,24.05,0,0,1-7.39,4.62Zm-9.52-18a23.9,23.9,0,0,1-7.69-4.09c-1.64-1.4-2.47-2.79-2.47-3.92,0-2.41,3.59-5.47,9.56-7.55.75-.26,1.51-.5,2.27-.72a67.69,67.69,0,0,0,3.22,8.34,68.46,68.46,0,0,0-3.26,8.45C608.12,256.66,607.58,256.49,607,256.31Zm3.19-21.72c-1.24-6.34-.41-11.12,1.66-12.32s7.09.55,12.23,5.12c.33.29.66.59,1,.91a69,69,0,0,0-5.62,6.95,69.06,69.06,0,0,0-8.8,1.37c-.17-.67-.32-1.35-.46-2Zm28.47,7q-1-1.68-2-3.3c2.1.26,4.12.62,6,1.05a59,59,0,0,1-2.12,5.68c-.61-1.15-1.24-2.3-1.89-3.43Zm-11.61-11.31A59.76,59.76,0,0,1,631,235q-3.9-.18-7.8,0c1.28-1.69,2.6-3.26,3.92-4.69Zm-11.68,11.33c-.65,1.12-1.27,2.26-1.87,3.41-.82-2-1.52-3.86-2.09-5.71,1.88-.42,3.89-.77,6-1C616.73,239.41,616.06,240.51,615.41,241.64Zm2.08,16.84a59.51,59.51,0,0,1-6.08-1c.58-1.88,1.3-3.83,2.14-5.82.59,1.15,1.22,2.29,1.87,3.41S616.77,257.37,617.49,258.48Zm9.68,8c-1.34-1.44-2.67-3-4-4.75,1.26,0,2.55.07,3.86.07s2.67,0,4-.08A59.83,59.83,0,0,1,627.17,266.48Zm13.45-14.9a60.16,60.16,0,0,1,2.22,5.8,58.86,58.86,0,0,1-6.16,1.05c.7-1.1,1.37-2.22,2-3.36s1.3-2.31,1.91-3.49Zm-4.35,2.09c-1,1.73-2.06,3.44-3.17,5.1-2,.14-4,.22-6,.22s-4-.07-6-.19c-1.14-1.67-2.21-3.37-3.22-5.12s-2-3.51-2.82-5.31c.87-1.81,1.81-3.59,2.81-5.32h0q1.5-2.61,3.2-5.1c2-.15,4-.22,6-.22s4.06.08,6,.22q1.68,2.49,3.18,5.08t2.84,5.3c-.88,1.81-1.83,3.59-2.83,5.34Zm5.81-31.48c2.21,1.27,3.07,6.41,1.68,13.15-.09.44-.19.88-.3,1.31a67.3,67.3,0,0,0-8.82-1.39,65.27,65.27,0,0,0-5.58-7c.5-.48,1-.94,1.52-1.39,4.87-4.24,9.43-5.92,11.5-4.72Z"/><path class="cls-20" d="M627.06,242.41a5.89,5.89,0,1,1-5.89,5.89,5.89,5.89,0,0,1,5.89-5.89"/><rect class="cls-13" x="529.95" y="234" width="28" height="28" rx="6" ry="6"/><polyline class="cls-21" points="532.95 232.91 539.95 251 569.95 231"/><rect class="cls-5" x="593" y="298.5" width="63" height="63" rx="14.74" ry="14.74"/><rect class="cls-22" x="622.63" y="314" width="4.74" height="30.5"/><rect class="cls-22" x="622.63" y="313.66" width="4.74" height="31.18" transform="translate(295.75 954.25) rotate(-90)"/><rect class="cls-23" x="634" y="350" width="35" height="15" rx="7.5" ry="7.5"/><path class="cls-24" d="M651,350h-9.5a7.5,7.5,0,0,0,0,15H651Z"/><rect class="cls-23" x="625" y="341" width="35" height="15" rx="7.5" ry="7.5" transform="translate(-83.72 431.35) rotate(-34.98)"/><path class="cls-25" d="M637.28,341.91l-8.08,5.65A8.2,8.2,0,0,0,638.59,361l8.08-5.66Z"/><rect class="cls-13" x="529" y="317" width="28" height="28" rx="6" ry="6"/><polyline class="cls-21" points="532 315.91 539 334 569 314"/><circle class="cls-9" cx="626.51" cy="406.05" r="28.95"/><path class="cls-26" d="M625.54,418.28V412.2h-6.2v-1.51h6.2V408h-6.2v-1.51h5.32l-7.17-11.34h3l5,8.44c.57,1,.88,1.73,1.35,2.74H627c.47-.88.91-1.8,1.48-2.83l5.19-8.35h3.06L629,406.51h5.25V408h-6.17v2.67h6.17v1.51h-6.17v6.08Z"/><rect class="cls-13" x="530" y="392" width="28" height="28" rx="6" ry="6"/><polyline class="cls-21" points="533 390.91 540 409 570 389"/><line class="cls-27" x1="291" y1="251" x2="298.5" y2="251"/><line class="cls-28" x1="313.91" y1="251" x2="460.3" y2="251"/><line class="cls-27" x1="468" y1="251" x2="475.5" y2="251"/><line class="cls-27" x1="291.5" y1="330.5" x2="299" y2="330.5"/><line class="cls-29" x1="314" y1="330.5" x2="456.5" y2="330.5"/><line class="cls-27" x1="464" y1="330.5" x2="471.5" y2="330.5"/><line class="cls-27" x1="291.5" y1="406.5" x2="299" y2="406.5"/><line class="cls-29" x1="314" y1="406.5" x2="456.5" y2="406.5"/><line class="cls-27" x1="464" y1="406.5" x2="471.5" y2="406.5"/></g></g></svg>