<svg xmlns="http://www.w3.org/2000/svg" viewBox="0 0 683.86 690.41"><defs><style>.cls-1,.cls-11,.cls-20,.cls-23,.cls-24,.cls-25,.cls-26,.cls-28,.cls-31,.cls-7,.cls-9{fill:none;}.cls-1{stroke:#002047;}.cls-1,.cls-20,.cls-23,.cls-24,.cls-25,.cls-26,.cls-28,.cls-31,.cls-7{stroke-miterlimit:10;}.cls-2{fill:#fff6e9;}.cls-3,.cls-35{fill:#fff;}.cls-4{fill:#704311;}.cls-5{fill:#131313;}.cls-6{fill:#7c7c7c;}.cls-7{stroke:#0b1035;}.cls-8{fill:#ccc;}.cls-11,.cls-9{stroke:#00cbff;stroke-linejoin:round;stroke-width:5px;}.cls-11,.cls-20,.cls-24,.cls-25,.cls-26,.cls-31,.cls-9{stroke-linecap:round;}.cls-9{stroke-dasharray:10 10 0 10;}.cls-10{fill:#e032b3;}.cls-12{fill:#efefef;}.cls-13{fill:#f5f5f5;}.cls-14{fill:#eee;}.cls-15{fill:#f55;}.cls-16{fill:#ffff0d;}.cls-17{fill:#31aa24;}.cls-18{fill:#f0f0f0;}.cls-19{fill:#00dcff;}.cls-20{stroke:#000;}.cls-20,.cls-31{stroke-width:3px;}.cls-21{fill:#2a2c2b;}.cls-22{fill:#83858c;}.cls-23,.cls-24{stroke:#2a2c2b;}.cls-24,.cls-25,.cls-26{stroke-width:4px;}.cls-25,.cls-31{stroke:#fff;}.cls-26{stroke:#00dcff;}.cls-27{fill:#212725;}.cls-28{stroke:#bfc1be;stroke-width:0.88px;}.cls-29{fill:#b6cae1;opacity:0.5;}.cls-30{fill:#002938;}.cls-32{fill:#b8d2e0;}.cls-33{fill:#00126d;}.cls-34{fill:#bbb;}.cls-35{opacity:0.2;}</style></defs><title>h730_3_2</title><g id="レイヤー_2" data-name="レイヤー 2"><g id="_4th" data-name="4th"><line class="cls-1" x1="551.61" y1="647.55" x2="551.61" y2="628.25"/><rect class="cls-2" x="156.57" y="657.77" width="19.03" height="6.07" rx="2.16" ry="2.16" transform="matrix(0.98, 0.18, -0.18, 0.98, 122.76, -19.17)"/><path class="cls-2" d="M158.67,566.5c-4.43,8.62-1.23,20.55-3.56,25.08-1.32,2.56-8.5-1.46-9.56.72-9.13,19-24.43,16.7-43.17,7.89C78.59,589,77.6,553.1,77,547c-2.63-25.49,23.16-43,48-36.76S170.39,543.71,158.67,566.5Z"/><rect class="cls-3" x="156.47" y="655.65" width="8.47" height="12.86" transform="translate(-325.81 185.13) rotate(-31.93)"/><path class="cls-4" d="M164.7,553.39c-1.92,7.66-8.47-10-17.62-11.94-11.7-2.47-13.35-3.16-28.52,4.08-.57.28-15.48,31.3-16,31.59-.32.15-.42-23.23-.42-23.23-3.6,11.7-11.21,35.51-13.27,37.91-1.12,1.3-4.84-8.09-4.84-8.09a29.69,29.69,0,0,0-5.15,5.58c-2.06,2.67-2.41-15.7-2.66-13-.61,6.67.16,8.48-3.5,2.71-4.26-6.7-4.64-42.42-2.87-49.44,4.47-17.83,38.62-29.68,64.83-23.09S169.18,535.56,164.7,553.39Z"/><path class="cls-2" d="M102.09,553.89l-.47,24.25C81.51,558.72,102.09,553.89,102.09,553.89Z"/><circle class="cls-5" cx="145.82" cy="568.05" r="4.19"/><rect class="cls-2" x="95.33" y="589.3" width="28.35" height="31.05"/><polygon class="cls-6" points="131.1 688.51 91.96 688.51 85.21 617.65 137.85 631.82 131.1 688.51"/><path class="cls-6" d="M85.86,649.53H145.8a5.52,5.52,0,0,1,5.52,5.52v4.47a5.52,5.52,0,0,1-5.52,5.52H85.86a0,0,0,0,1,0,0V649.53A0,0,0,0,1,85.86,649.53Z" transform="translate(621.06 217.26) rotate(59.02)"/><path class="cls-6" d="M128.36,666.42h32.92a0,0,0,0,1,0,0v15.52a0,0,0,0,1,0,0H128.36a5.52,5.52,0,0,1-5.52-5.52v-4.47a5.52,5.52,0,0,1,5.52-5.52Z" transform="translate(-335.03 177.1) rotate(-31.93)"/><polygon class="cls-3" points="126.81 625.15 93.31 606.17 95.18 598.61 129.63 620.76 126.81 625.15"/><path class="cls-7" d="M111.63,630.84c-13.83-8.25-13.85,7.43-13.85,7.43l.22.93,22.66,36.74"/><path class="cls-6" d="M138.64,640l-52.87-21.5a3.67,3.67,0,0,1-2-4.78l.21-.52c2.28-5.6,4.81-9.06,8.84-10.13a2.64,2.64,0,0,1,2.1.35l46.33,29.78Z"/><line class="cls-7" x1="95.33" y1="622.37" x2="131.78" y2="637.22"/><path class="cls-7" d="M111.19,630.59a5.93,5.93,0,0,1,1,1L130,660.44"/><rect class="cls-8" x="149.67" y="664.22" width="59.39" height="8.77" rx="3.12" ry="3.12"/><path class="cls-8" d="M183.84,639.54h52.5a3.12,3.12,0,0,1,3.12,3.12v2.53a3.12,3.12,0,0,1-3.12,3.12h-52.5a2.72,2.72,0,0,1-2.72-2.72v-3.33a2.72,2.72,0,0,1,2.72-2.72Z" transform="translate(885.52 589.72) rotate(103.5)"/><line class="cls-9" x1="409.31" y1="645.72" x2="283.13" y2="645.72"/><path class="cls-10" d="M345.39,667.28l-20.19-20.2a13.21,13.21,0,1,1,18.68-18.68l1.51,1.52,1.52-1.52a13.21,13.21,0,1,1,18.68,18.68Z"/><polyline class="cls-11" points="395.18 626.88 414.01 645.72 395.18 663.61"/><path class="cls-3" d="M313,605.22a4.61,4.61,0,0,1-1.66,1.1,5.17,5.17,0,0,1-1.87.36c-2,0-3.19-1-3.19-2.73a3,3,0,0,1,2.58-3,14.81,14.81,0,0,1,4.14-.46v-1c0-1.22-.78-1.85-2.27-1.85a3,3,0,0,0-2.24.77,2.6,2.6,0,0,0-.55,1.05l-1.41-.31a3.56,3.56,0,0,1,1-1.6,4.51,4.51,0,0,1,3.17-1c2.38,0,3.6,1,3.6,3v5.06a12.39,12.39,0,0,0,.14,2H313Zm0-3.63a11.06,11.06,0,0,0-4,.52,1.91,1.91,0,0,0-1.37,1.85c0,1,.74,1.62,1.91,1.62a4.08,4.08,0,0,0,2.88-1.27,2,2,0,0,0,.56-1.55Z"/><path class="cls-3" d="M317,610.28a14.67,14.67,0,0,0,.12-2v-9.4a14.17,14.17,0,0,0-.12-2.07h1.44v1a5.22,5.22,0,0,1-.06.73,4.11,4.11,0,0,1,3.68-1.94c2.77,0,4.46,1.89,4.46,5s-1.73,5-4.43,5a4.31,4.31,0,0,1-3.71-1.91,9,9,0,0,1,.07,1.26v2.23a13.48,13.48,0,0,0,.13,2Zm8.12-8.64c0-2.45-1.16-3.85-3.17-3.85s-3.48,1.55-3.48,3.87a4.06,4.06,0,0,0,1,2.88,3.56,3.56,0,0,0,2.47,1C323.89,605.5,325.08,604,325.08,601.64Z"/><path class="cls-3" d="M328.6,610.28a14.65,14.65,0,0,0,.13-2v-9.4a14.05,14.05,0,0,0-.13-2.07H330v1a7.06,7.06,0,0,1-.05.73,4.11,4.11,0,0,1,3.67-1.94c2.77,0,4.47,1.89,4.47,5s-1.73,5-4.43,5a4.28,4.28,0,0,1-3.71-1.91,10.76,10.76,0,0,1,.07,1.26v2.23a13.48,13.48,0,0,0,.13,2Zm8.12-8.64c0-2.45-1.15-3.85-3.17-3.85s-3.47,1.55-3.47,3.87a4.1,4.1,0,0,0,1,2.88,3.56,3.56,0,0,0,2.47,1C335.53,605.5,336.72,604,336.72,601.64Z"/><path class="cls-3" d="M346.08,598.18a4.36,4.36,0,0,0-1.46-.26,2.64,2.64,0,0,0-2.21,1.09,3,3,0,0,0-.67,1.8v3.68a14,14,0,0,0,.13,2h-1.62a16.3,16.3,0,0,0,.12-2v-5.64a13.09,13.09,0,0,0-.12-2h1.49v1a4.78,4.78,0,0,1,0,.54,3.29,3.29,0,0,1,1-1.1,3.62,3.62,0,0,1,2.17-.63,8,8,0,0,1,1.6.16Z"/><path class="cls-3" d="M347.54,601.66c0-3.12,1.87-5.1,4.8-5.1s4.79,2,4.79,5.08-1.87,5.1-4.77,5.1S347.54,604.77,347.54,601.66Zm1.38,0c0,2.45,1.32,4,3.42,4s3.41-1.5,3.41-3.93-1.3-3.94-3.37-3.94S348.92,599.19,348.92,601.62Z"/><path class="cls-3" d="M365.65,605.22a4.52,4.52,0,0,1-1.66,1.1,5.17,5.17,0,0,1-1.87.36c-2,0-3.19-1-3.19-2.73a3,3,0,0,1,2.58-3,14.81,14.81,0,0,1,4.14-.46v-1c0-1.22-.78-1.85-2.27-1.85a3,3,0,0,0-2.23.77,2.48,2.48,0,0,0-.56,1.05l-1.41-.31a3.56,3.56,0,0,1,1-1.6,4.51,4.51,0,0,1,3.17-1c2.38,0,3.6,1,3.6,3v5.06a11.29,11.29,0,0,0,.15,2h-1.46Zm0-3.63a11.06,11.06,0,0,0-4,.52A1.91,1.91,0,0,0,360.3,604c0,1,.74,1.62,1.91,1.62a4.08,4.08,0,0,0,2.88-1.27,2,2,0,0,0,.56-1.55Z"/><path class="cls-3" d="M376.48,599.77a2.72,2.72,0,0,0-2.72-2.07c-2,0-3.24,1.55-3.24,4s1.3,3.89,3.32,3.89a2.69,2.69,0,0,0,2.34-1.15,2.83,2.83,0,0,0,.39-.92l1.35.36a4.88,4.88,0,0,1-.73,1.38,4.18,4.18,0,0,1-3.41,1.52c-2.82,0-4.64-2-4.64-5s1.8-5.15,4.55-5.15a4.09,4.09,0,0,1,3.48,1.65,5,5,0,0,1,.63,1.16Z"/><path class="cls-3" d="M380,606.5a12.87,12.87,0,0,0,.13-2v-9.62a13.13,13.13,0,0,0-.13-2h1.6a11,11,0,0,0-.14,2v3a5.6,5.6,0,0,1-.06.9,4.07,4.07,0,0,1,1-1.23,3.88,3.88,0,0,1,2.71-1,3.08,3.08,0,0,1,3.36,3.35v4.52a13.39,13.39,0,0,0,.13,2H387a12.61,12.61,0,0,0,.12-2v-4.25c0-1.57-.77-2.41-2.17-2.41a3.12,3.12,0,0,0-2.54,1.31,4.13,4.13,0,0,0-.9,1.89v3.46a14.49,14.49,0,0,0,.12,2Z"/><ellipse class="cls-12" cx="343.49" cy="496.27" rx="116.82" ry="24.73"/><polygon class="cls-8" points="382.4 496.84 304.25 496.84 317.27 426.13 369.38 426.13 382.4 496.84"/><rect class="cls-13" width="683.86" height="438.23" rx="26.99" ry="26.99"/><rect class="cls-5" x="43.65" y="25.12" width="604" height="387.05" rx="23.84" ry="23.84"/><path class="cls-3" d="M634.33,204.44V356.75a10.7,10.7,0,0,1-10.7,10.7H374a10.7,10.7,0,0,1-10.7-10.7V204.44"/><path class="cls-13" d="M363.25,204.44a10.7,10.7,0,0,1,10.7-10.7H623.63a10.7,10.7,0,0,1,10.7,10.7"/><polygon class="cls-3" points="429.27 204.44 404.19 204.44 404.19 200.95 406.44 198.53 429.27 198.53 429.27 204.44"/><polygon class="cls-14" points="454.35 204.44 429.27 204.44 429.27 200.95 431.52 198.53 454.35 198.53 454.35 204.44"/><circle class="cls-15" cx="371.37" cy="200.01" r="2.58"/><circle class="cls-16" cx="379.48" cy="200.01" r="2.58"/><circle class="cls-17" cx="387.59" cy="200.01" r="2.58"/><rect class="cls-18" x="374.15" y="210.24" width="248.4" height="149.39"/><rect class="cls-19" x="394.2" y="225.53" width="202.23" height="21.63"/><line class="cls-20" x1="401.72" y1="235.88" x2="456.28" y2="235.88"/><rect class="cls-21" x="401.72" y="258.46" width="27.28" height="9.41"/><rect class="cls-22" x="401.72" y="290.44" width="27.28" height="9.41"/><rect class="cls-21" x="401.72" y="274.45" width="27.28" height="9.41"/><rect class="cls-21" x="401.72" y="306.43" width="27.28" height="9.41"/><rect class="cls-23" x="438.88" y="306.9" width="27.28" height="9.41" rx="4.7" ry="4.7"/><rect class="cls-23" x="469.92" y="306.9" width="27.28" height="9.41" rx="4.7" ry="4.7"/><rect class="cls-23" x="438.88" y="321.95" width="27.28" height="9.41" rx="4.7" ry="4.7"/><line class="cls-24" x1="438.88" y1="261.75" x2="486.85" y2="261.75"/><line class="cls-25" x1="473.12" y1="279.15" x2="487.32" y2="279.15"/><line class="cls-26" x1="439.35" y1="279.15" x2="473.12" y2="279.15"/><line class="cls-24" x1="439.35" y1="295.14" x2="470.39" y2="295.14"/><polygon class="cls-3" points="554.38 262.36 525.53 278.86 525.53 311.86 554.38 328.37 583.24 311.86 583.24 278.86 554.38 262.36"/><polygon class="cls-27" points="554.38 263.93 526.9 279.64 526.9 311.08 554.38 326.79 581.86 311.08 581.86 279.64 554.38 263.93"/><polygon class="cls-28" points="554.38 284.88 545.22 290.12 545.22 300.6 554.38 305.84 563.54 300.6 563.54 290.12 554.38 284.88"/><polygon class="cls-28" points="554.38 279.64 540.64 287.5 540.64 303.22 554.38 311.08 568.12 303.22 568.12 287.5 554.38 279.64"/><polygon class="cls-28" points="554.38 274.4 536.06 284.88 536.06 305.84 554.38 316.32 572.7 305.84 572.7 284.88 554.38 274.4"/><polygon class="cls-28" points="554.38 269.17 531.49 282.26 531.49 308.46 554.38 321.56 577.28 308.46 577.28 282.26 554.38 269.17"/><polygon class="cls-29" points="554.37 269.2 535.75 284.62 526.89 309.73 554.37 316.38 581.85 310.94 577.27 282.2 554.37 269.2"/><path class="cls-3" d="M609.51,48.85V162.32a8,8,0,0,1-8,8h-186a8,8,0,0,1-8-8V48.85"/><path class="cls-13" d="M407.56,48.85a8,8,0,0,1,8-8h186a8,8,0,0,1,8,8"/><polygon class="cls-3" points="456.74 48.84 438.06 48.84 438.06 46.24 439.73 44.45 456.74 44.45 456.74 48.84"/><polygon class="cls-14" points="475.42 48.84 456.74 48.84 456.74 46.24 458.42 44.45 475.42 44.45 475.42 48.84"/><circle class="cls-15" cx="413.6" cy="45.55" r="1.92"/><circle class="cls-16" cx="419.65" cy="45.55" r="1.92"/><circle class="cls-17" cx="425.69" cy="45.55" r="1.92"/><rect class="cls-18" x="433.08" y="55.64" width="150.9" height="107.7"/><rect class="cls-19" x="452.51" y="106.02" width="32.14" height="32.14"/><rect class="cls-8" x="492.46" y="106.02" width="32.14" height="32.14"/><rect class="cls-8" x="532.42" y="106.02" width="32.14" height="32.14"/><rect class="cls-8" x="532.42" y="144.23" width="32.14" height="19.11"/><rect class="cls-8" x="452.51" y="144.23" width="32.14" height="19.11"/><rect class="cls-8" x="492.46" y="144.23" width="32.14" height="19.11"/><rect class="cls-30" x="433.4" y="55.64" width="150.26" height="33.87"/><rect class="cls-3" x="452.65" y="60.85" width="19.14" height="6.6"/><rect class="cls-3" x="478.39" y="60.85" width="19.14" height="6.6"/><rect class="cls-3" x="452.87" y="70.75" width="6.6" height="6.6"/><line class="cls-31" x1="461.89" y1="74.05" x2="470.14" y2="74.05"/><rect class="cls-19" x="452.51" y="81.7" width="112.04" height="4.34"/><path class="cls-3" d="M329,46.06V214.6c0,6.53-4.79,11.84-10.7,11.84H68.6c-5.91,0-10.7-5.31-10.7-11.84V46.06"/><path class="cls-13" d="M57.9,46.06a10.7,10.7,0,0,1,10.7-10.7H318.28A10.7,10.7,0,0,1,329,46.06"/><polygon class="cls-3" points="123.92 46.05 98.84 46.05 98.84 42.56 101.09 40.15 123.92 40.15 123.92 46.05"/><polygon class="cls-14" points="149 46.05 123.92 46.05 123.92 42.56 126.17 40.15 149 40.15 149 46.05"/><circle class="cls-15" cx="66.02" cy="41.63" r="2.58"/><circle class="cls-16" cx="74.13" cy="41.63" r="2.58"/><circle class="cls-17" cx="82.24" cy="41.63" r="2.58"/><rect class="cls-21" x="80.09" y="55.21" width="226.69" height="161.79"/><rect class="cls-19" x="92.32" y="74.97" width="202.23" height="21.63"/><rect class="cls-18" x="92.32" y="96.6" width="202.23" height="102.53"/><line class="cls-20" x1="99.85" y1="85.31" x2="154.4" y2="85.31"/><circle class="cls-32" cx="244.23" cy="144.1" r="37.63"/><path class="cls-2" d="M232.28,176.21V165.27a1.39,1.39,0,0,0-2.78,0v10.94Z"/><path class="cls-2" d="M259.91,176.21V165.27a1.39,1.39,0,0,0-2.78,0v10.94Z"/><path class="cls-2" d="M257.13,179.31v.07S257.13,179.34,257.13,179.31Z"/><path class="cls-2" d="M257.13,179.38h0s0,0,0-.07Z"/><path class="cls-2" d="M260.53,133.19c-3,11.5-7.12,16-15.9,16s-13.09-4.47-15.9-16c-2.09-8.57,7.12-16,15.9-16S262.78,124.66,260.53,133.19Z"/><ellipse class="cls-5" cx="239.68" cy="135.08" rx="1.28" ry="1.29"/><ellipse class="cls-5" cx="248.95" cy="135.08" rx="1.28" ry="1.29"/><rect class="cls-2" x="240.25" y="147.86" width="8.9" height="8.94"/><line class="cls-1" x1="233.67" y1="160.25" x2="233.67" y2="171.14"/><line class="cls-1" x1="255.92" y1="167.79" x2="255.92" y2="160.62"/><path class="cls-33" d="M232,152.06h.5a.93.93,0,0,1,.93.93v18.06a.93.93,0,0,1-.93.93H228.4a.93.93,0,0,1-.93-.93V156.6a4.55,4.55,0,0,1,4.55-4.55Z"/><path class="cls-16" d="M263.18,127.41a19.21,19.21,0,0,1-5.5,13.74c-1.06,1-.27-5.42-1.3-7.45-.52-1-3,2.54-3.58,1.38a18.24,18.24,0,0,0-1.8-2.87c-.56-.7-2.09,1.43-2.67.85a5.56,5.56,0,0,0-3.63-2c-1.43,0-2.82,1-4.16,2.29-.59.58-2.32-1.84-2.88-1.17a15.75,15.75,0,0,0-1.88,3c-.61,1.19-2.8-2.29-3.31-1.3-.9,1.73-.15,8.27-1.12,7.26-3.23-3.34-5.14-8.71-5.14-13.74,0-10.26,8.28-16.06,18.49-16.06S263.18,117.15,263.18,127.41Z"/><line class="cls-1" x1="255.71" y1="160.62" x2="255.71" y2="171.51"/><path class="cls-33" d="M256.87,152.43H261a.93.93,0,0,1,.93.93v18.06a.93.93,0,0,1-.93.93h-.5a4.55,4.55,0,0,1-4.55-4.55V153.37a.93.93,0,0,1,.93-.93Z" transform="translate(517.85 324.79) rotate(-180)"/><path class="cls-33" d="M256.52,176.21l3-21.21c0-2.6-3.57-4.55-7.38-4l-2.61.35c0,2.39-1.3,2.95-4.88,2.95s-4.84-.56-4.87-2.95l-2.6-.35c-3.81-.53-7.23,1-7.23,3.62l2.95,21.61Z"/><rect class="cls-21" x="99.85" y="107.89" width="27.28" height="9.41"/><rect class="cls-22" x="99.85" y="139.87" width="27.28" height="9.41"/><rect class="cls-21" x="99.85" y="123.88" width="27.28" height="9.41"/><rect class="cls-21" x="99.85" y="155.86" width="27.28" height="9.41"/><rect class="cls-23" x="137" y="156.33" width="27.28" height="9.41" rx="4.7" ry="4.7"/><rect class="cls-23" x="168.04" y="156.33" width="27.28" height="9.41" rx="4.7" ry="4.7"/><rect class="cls-23" x="137" y="171.38" width="27.28" height="9.41" rx="4.7" ry="4.7"/><line class="cls-24" x1="137" y1="111.18" x2="184.97" y2="111.18"/><line class="cls-25" x1="171.24" y1="128.58" x2="185.44" y2="128.58"/><line class="cls-26" x1="137.47" y1="128.58" x2="171.24" y2="128.58"/><line class="cls-24" x1="137.47" y1="144.57" x2="168.51" y2="144.57"/><path class="cls-3" d="M334.89,172.79V389.51c0,8.4-3.11,15.22-6.95,15.22H165.54c-3.84,0-7-6.82-7-15.22V172.79"/><path class="cls-13" d="M158.58,172.79c0-5.43,3.12-9.83,7-9.83h162.4c3.84,0,6.95,4.4,6.95,9.83"/><polygon class="cls-3" points="225.85 172.79 200.78 172.79 200.78 169.58 203.03 167.37 225.85 167.37 225.85 172.79"/><polygon class="cls-14" points="250.93 172.79 225.85 172.79 225.85 169.58 228.11 167.37 250.93 167.37 250.93 172.79"/><ellipse class="cls-15" cx="167.95" cy="168.72" rx="2.58" ry="2.37"/><ellipse class="cls-16" cx="176.07" cy="168.72" rx="2.58" ry="2.37"/><ellipse class="cls-17" cx="184.18" cy="168.72" rx="2.58" ry="2.37"/><rect class="cls-18" x="171.28" y="187.6" width="150.9" height="208.75"/><rect class="cls-19" x="191.58" y="277.61" width="32.14" height="32.14"/><rect class="cls-8" x="231.54" y="277.61" width="32.14" height="32.14"/><rect class="cls-8" x="271.49" y="277.61" width="32.14" height="32.14"/><rect class="cls-8" x="191.58" y="315.82" width="32.14" height="32.14"/><rect class="cls-8" x="231.54" y="315.82" width="32.14" height="32.14"/><rect class="cls-8" x="271.49" y="315.82" width="32.14" height="32.14"/><rect class="cls-8" x="191.58" y="354.04" width="32.14" height="32.14"/><rect class="cls-8" x="230.67" y="354.04" width="32.14" height="32.14"/><rect class="cls-8" x="271.49" y="354.04" width="32.14" height="32.14"/><rect class="cls-30" x="171.17" y="186.41" width="151.13" height="73.96"/><rect class="cls-19" x="191.58" y="246.34" width="112.04" height="5.21"/><rect class="cls-3" x="191.58" y="198.57" width="25.19" height="8.69"/><rect class="cls-3" x="225.46" y="198.57" width="25.19" height="8.69"/><rect class="cls-3" x="191.58" y="215.94" width="25.19" height="8.69"/><rect class="cls-3" x="225.46" y="215.94" width="25.19" height="8.69"/><rect class="cls-3" x="191.87" y="228.97" width="8.69" height="8.69"/><rect class="cls-3" x="225.46" y="228.97" width="8.69" height="8.69"/><line class="cls-31" x1="203.74" y1="233.31" x2="214.6" y2="233.31"/><line class="cls-31" x1="238.49" y1="233.31" x2="249.34" y2="233.31"/><path class="cls-2" d="M525.71,554.35c8.17,31,19.15,43,42.77,43s35.23-12,42.78-43c5.62-23.06-19.15-43-42.78-43S519.66,531.4,525.71,554.35Z"/><ellipse class="cls-5" cx="581.8" cy="559.45" rx="3.45" ry="3.47"/><ellipse class="cls-5" cx="556.86" cy="559.45" rx="3.45" ry="3.47"/><rect class="cls-2" x="556.32" y="593.83" width="23.94" height="24.06" transform="translate(1136.59 1211.71) rotate(-180)"/><path class="cls-33" d="M555.2,603.17c.08,6.43,3.48,7.94,13.12,7.94s13-1.51,13.11-7.94l7-1c10.25-1.41,19.45,2.77,19.45,9.76l-10.57,77.59h-58l-11-76.53c0-7,9.6-12.23,19.85-10.82Z"/><line class="cls-1" x1="597.97" y1="627.16" x2="597.97" y2="656.47"/><rect class="cls-2" x="579.69" y="658.95" width="52.63" height="8.59" rx="3.29" ry="3.29" transform="translate(1269.25 57.24) rotate(90)"/><path class="cls-33" d="M601,605.13h11.26a2.42,2.42,0,0,1,2.42,2.42v48.8a2.42,2.42,0,0,1-2.42,2.42h-1.92A11.76,11.76,0,0,1,598.58,647V607.54a2.42,2.42,0,0,1,2.42-2.42Z" transform="translate(1213.25 1263.88) rotate(-180)"/><path class="cls-16" d="M518.57,538.81c0,14.17,5.37,27.88,14.81,37,2.85,2.75.71-14.59,3.49-20,1.4-2.75,8,6.83,9.64,3.72a48.14,48.14,0,0,1,4.82-7.72c1.52-1.88,5.63,3.84,7.2,2.29,3.16-3.13,6.42-5.3,9.76-5.3,3.85,0,7.6,2.59,11.2,6.15,1.58,1.56,6.24-5,7.76-3.14a43.15,43.15,0,0,1,5,8c1.64,3.18,7.53-6.17,8.91-3.51,2.42,4.66.39,22.24,3,19.54,8.7-9,13.84-23.43,13.84-37,0-27.61-22.29-43.22-49.76-43.22S518.57,511.2,518.57,538.81Z"/><path class="cls-33" d="M536.34,605.13h1.92a2.42,2.42,0,0,1,2.42,2.42v48.8a2.42,2.42,0,0,1-2.42,2.42H527a2.42,2.42,0,0,1-2.42-2.42V616.88a11.76,11.76,0,0,1,11.76-11.76Z"/><rect class="cls-34" x="475.3" y="681.41" width="93" height="9" rx="3.94" ry="3.94" transform="translate(1043.6 1371.82) rotate(-180)"/><rect class="cls-8" x="476.6" y="626.91" width="90.39" height="63" rx="13.59" ry="13.59" transform="translate(1043.6 1316.82) rotate(-180)"/><circle class="cls-3" cx="521.46" cy="659.54" r="8.39"/><polygon class="cls-35" points="43.43 161 43.43 108 108.43 25 148.5 25 43.43 161"/><polygon class="cls-35" points="43.43 274 43.43 220 196.43 25 236.5 25 43.43 274"/></g></g></svg>