<svg xmlns="http://www.w3.org/2000/svg" viewBox="0 0 735.67 676.43">
<defs><style>.cls-1{fill:#fff6e9;}.cls-2{fill:#704311;}.cls-3{fill:#131313;}.cls-4{fill:#7c7c7c;}.cls-5,.cls-9{fill:#fff;}.cls-14,.cls-18,.cls-6{fill:none;stroke-miterlimit:10;}.cls-6{stroke:#0b1035;}.cls-7{fill:#ccc;}.cls-8{fill:#e032b3;}.cls-10,.cls-9{opacity:0.4;}.cls-10{fill:#efefef;}.cls-11,.cls-12{fill:#191313;}.cls-11{fill-rule:evenodd;}.cls-13{fill:#212725;}.cls-14{stroke:#bfc1be;stroke-width:0.88px;}.cls-15{fill:#b6cae1;opacity:0.5;}.cls-16{fill:#ff9917;}.cls-17{fill:#b8d2e0;}.cls-18{stroke:#002047;}.cls-19{fill:#00126d;}.cls-20{fill:#ffff0d;}</style></defs>
<g><g id="_3rd" data-name="3rd"><rect class="cls-1" x="379.08" y="638.23" width="32.26" height="7.08" rx="3.54" ry="3.54" transform="translate(89.19 -47) rotate(7.67)"/><path class="cls-1" d="M359.76,530.76c-5.75,11.19-1.61,26.69-4.63,32.57-1.71,3.32-11-1.91-12.4.94-11.86,24.6-31.73,21.67-56.06,10.23-30.87-14.51-32.16-61.13-33-69.1-3.41-33.09,30.08-55.83,62.34-47.72S375,501.18,359.76,530.76Z"/><path class="cls-2" d="M367.58,513.75c-2.49,9.94-11-13-22.87-15.5-15.19-3.21-17.33-4.11-37,5.3-.74.35-20.1,40.63-20.84,41-.41.2-.54-30.15-.54-30.15-4.67,15.18-14.55,46.09-17.23,49.21-1.45,1.69-6.28-10.5-6.28-10.5a38.93,38.93,0,0,0-6.69,7.24c-2.67,3.47-3.13-20.38-3.45-16.88-.79,8.65.21,11-4.55,3.52-5.52-8.7-6-55.08-3.72-64.19,5.81-23.15,50.14-38.53,84.16-30S373.4,490.6,367.58,513.75Z"/><path class="cls-1" d="M286.3,514.4l-.61,31.48C259.58,520.67,286.3,514.4,286.3,514.4Z"/><circle class="cls-3" cx="343.07" cy="532.78" r="5.44"/><rect class="cls-1" x="274.68" y="560.78" width="33.04" height="36.19"/><polygon class="cls-4" points="316.38 676.43 270.75 676.43 262.88 593.82 324.24 610.34 316.38 676.43"/><path class="cls-4" d="M268.83,624.78h67.27a9,9,0,0,1,9,9v0a9,9,0,0,1-9,9H268.83a0,0,0,0,1,0,0V624.78A0,0,0,0,1,268.83,624.78Z" transform="translate(468.22 -51.72) rotate(39.08)"/><path class="cls-4" d="M329.54,639.17h58.61a0,0,0,0,1,0,0v18.09a0,0,0,0,1,0,0H329.54a9,9,0,0,1-9-9v0A9,9,0,0,1,329.54,639.17Z" transform="translate(-108.85 72.72) rotate(-10.17)"/><polygon class="cls-5" points="311.37 602.57 272.32 580.45 274.51 571.62 314.66 597.45 311.37 602.57"/><path class="cls-6" d="M288.84,607.62c-18.43-3.54-12.22,13.65-12.22,13.65l.61.93,39.43,31.25"/><path class="cls-4" d="M325.16,619.84l-61.63-25.07a4.27,4.27,0,0,1-2.35-5.57l.25-.6c2.65-6.52,5.61-10.56,10.3-11.81a3.08,3.08,0,0,1,2.45.41l54,34.71Z"/><line class="cls-6" x1="274.68" y1="599.33" x2="317.16" y2="616.63"/><path class="cls-6" d="M288.26,607.52a7.1,7.1,0,0,1,1.54.7l30.9,24.54"/><rect class="cls-5" x="387.57" y="634.94" width="7.08" height="13.37" transform="translate(-107.11 79.11) rotate(-10.17)"/><rect class="cls-7" x="402.13" y="648.1" width="69.23" height="10.23" rx="5.11" ry="5.11"/><path class="cls-7" d="M449.08,619.34h58.44a5.11,5.11,0,0,1,5.11,5.11v0a5.11,5.11,0,0,1-5.11,5.11H449.08a4.46,4.46,0,0,1-4.46-4.46V623.8A4.46,4.46,0,0,1,449.08,619.34Z" transform="translate(1247.81 458.97) rotate(115.33)"/><polyline class="cls-8" points="434.07 566.75 421.4 579.42 408.74 566.75"/><path class="cls-8" d="M421.41,601.21l-23.57-23.56a15.41,15.41,0,0,1,21.79-21.8l1.78,1.77,1.77-1.77A15.41,15.41,0,1,1,445,577.65Z"/><path class="cls-9" d="M232.92,317.2c0-24.72-18.71-44.8-42-45.26-6.41-16.45-21.7-28-39.55-28a40.73,40.73,0,0,0-11.52,1.68c-7.25-14.1-21.37-23.68-37.6-23.68-20.38,0-37.43,15.1-41.72,35.31-20.69,2.48-36.9,20.59-37.85,42.9A84.57,84.57,0,0,0,18.34,312,46.05,46.05,0,0,0,0,349.2c0,17.88,9.8,33.34,24,40.7a48.22,48.22,0,0,0-1.34,11.3c0,25,19.15,45.28,42.78,45.28a41.49,41.49,0,0,0,30.19-13.2,40.61,40.61,0,0,0,18,4.2,41.91,41.91,0,0,0,33.82-17.58q4-1.33,7.74-3a40.54,40.54,0,0,0,14.17,2.55c23.63,0,42.78-20.27,42.78-45.28a47.53,47.53,0,0,0-2.93-16.46C223.26,350.31,232.92,335,232.92,317.2Z"/><circle class="cls-10" cx="261.73" cy="260.77" r="17.34"/><circle class="cls-10" cx="292.02" cy="304.72" r="11.11"/><circle class="cls-10" cx="604.61" cy="545.77" r="17.34"/><path class="cls-9" d="M182,0c-19.83,0-36.64,12.27-42.54,29.27-.53.46-1.06.92-1.58,1.39h-.41c-24.73,0-44.79,19.09-44.79,42.63a41.17,41.17,0,0,0,9.8,26.6,41.15,41.15,0,0,0-9.8,26.59,42,42,0,0,0,18.74,34.67,40.88,40.88,0,0,0-.74,7.71c0,23.54,20,42.63,44.79,42.63a46.84,46.84,0,0,0,14.89-2.42c5.53,17.56,22.64,30.37,42.9,30.37,24.74,0,44.79-19.09,44.79-42.63,0-1.14-.06-2.27-.15-3.39,15.69-6.61,26.65-21.54,26.68-38.91,22.84-2,40.74-20.21,40.74-42.45,0-20.74-15.58-38-36.2-41.84a40.66,40.66,0,0,0,1.14-9.55c0-19.16-13.28-35.37-31.56-40.74a45.52,45.52,0,0,0-36-17.22,46.56,46.56,0,0,0-17.59,3.42A46.36,46.36,0,0,0,182,0Z"/><circle class="cls-10" cx="563.32" cy="578.72" r="11.11"/><path class="cls-9" d="M722.65,382.54a36,36,0,0,0,1.48-10.22,36.46,36.46,0,0,0-18.55-31.68,38.52,38.52,0,0,0,.28-4.45,36.75,36.75,0,0,0-37-36.55,37.18,37.18,0,0,0-15.79,3.5A37.22,37.22,0,0,0,607,297.63,37,37,0,0,0,541.57,321c0,.75,0,1.5.08,2.24a36.57,36.57,0,0,0-23.14,33.23,36.6,36.6,0,0,0-26,34.9,36.09,36.09,0,0,0,6.27,20.38,36.38,36.38,0,0,0-15.89,30A37,37,0,0,0,547,466.53a37,37,0,0,0,28.72,17.35,37,37,0,0,0,73.4-6,35.77,35.77,0,0,0-.36-5,106.94,106.94,0,0,0,14.12-6h.25a37,37,0,0,0,33-20.07c.86.06,1.72.1,2.6.1a36.76,36.76,0,0,0,36.95-36.55A36.27,36.27,0,0,0,722.65,382.54Z"/><ellipse class="cls-5" cx="203.4" cy="106.65" rx="64.73" ry="65.78"/><path class="cls-11" d="M203.85,39.43a66.38,66.38,0,0,0-21,129.33c3.32.62,4.53-1.44,4.53-3.19,0-1.58-.06-6.81-.09-12.35-18.44,4-22.33-7.83-22.33-7.83-3-7.68-7.37-9.72-7.37-9.72-6-4.11.46-4,.46-4,6.65.47,10.16,6.84,10.16,6.84,5.91,10.15,15.51,7.21,19.3,5.52.59-4.29,2.31-7.22,4.21-8.88-14.73-1.68-30.21-7.37-30.21-32.8a25.71,25.71,0,0,1,6.83-17.81c-.69-1.67-3-8.42.64-17.56,0,0,5.57-1.78,18.24,6.8a62.94,62.94,0,0,1,33.21,0c12.65-8.58,18.21-6.8,18.21-6.8,3.61,9.14,1.34,15.89.65,17.56a25.66,25.66,0,0,1,6.83,17.81c0,25.49-15.52,31.11-30.28,32.75,2.38,2.06,4.5,6.1,4.5,12.29,0,8.88-.08,16-.08,18.21,0,1.77,1.19,3.84,4.55,3.19a66.38,66.38,0,0,0-21-129.33Z"/><path class="cls-12" d="M162.65,134.71c-.14.33-.66.43-1.13.2s-.75-.66-.6-1,.66-.44,1.14-.21.76.67.59,1Z"/><path class="cls-12" d="M165.34,137.71a1.23,1.23,0,0,1-1.55-1.69c.33-.29.93-.15,1.36.31s.52,1.08.19,1.38Z"/><path class="cls-12" d="M168,141.53c-.4.28-1.07,0-1.48-.57s-.4-1.3,0-1.58,1.07,0,1.48.55.41,1.31,0,1.6Z"/><path class="cls-12" d="M171.54,145.22c-.37.41-1.14.3-1.71-.25a1.29,1.29,0,0,1-.38-1.7c.37-.4,1.15-.28,1.72.26s.75,1.3.37,1.69Z"/><path class="cls-12" d="M176.48,147.37c-.16.52-.91.75-1.66.53s-1.24-.83-1.09-1.36.91-.77,1.66-.53,1.24.83,1.09,1.36Z"/><path class="cls-12" d="M181.9,147.77c0,.54-.62,1-1.4,1s-1.44-.43-1.45-1,.63-1,1.42-1,1.43.42,1.43,1Z"/><path class="cls-12" d="M187,146.91c.1.53-.45,1.08-1.23,1.22s-1.49-.19-1.58-.71.46-1.1,1.23-1.24,1.48.18,1.58.73Z"/><polygon class="cls-5" points="606.43 306.43 546.98 340.43 546.98 408.43 606.43 442.43 665.88 408.43 665.88 340.43 606.43 306.43"/><polygon class="cls-13" points="606.43 309.66 549.81 342.05 549.81 406.81 606.43 439.19 663.04 406.81 663.04 342.05 606.43 309.66"/><polygon class="cls-14" points="606.43 352.84 587.56 363.63 587.56 385.22 606.43 396.01 625.3 385.22 625.3 363.63 606.43 352.84"/><polygon class="cls-14" points="606.43 342.05 578.12 358.24 578.12 390.62 606.43 406.81 634.74 390.62 634.74 358.24 606.43 342.05"/><polygon class="cls-14" points="606.43 331.25 568.68 352.84 568.68 396.01 606.43 417.6 644.17 396.01 644.17 352.84 606.43 331.25"/><polygon class="cls-14" points="606.43 320.46 559.25 347.44 559.25 401.41 606.43 428.39 653.61 401.41 653.61 347.44 606.43 320.46"/><polygon class="cls-15" points="606.4 320.52 568.03 352.3 549.79 404.03 606.4 417.74 663.02 406.52 653.58 347.32 606.4 320.52"/><path class="cls-9" d="M657.67,131.85a38.65,38.65,0,0,0-.22-4A38.42,38.42,0,0,0,608.37,70a38.43,38.43,0,0,0-63-18.51,38.45,38.45,0,0,0-42.94,5.94,38.43,38.43,0,0,0-73.61,15.46,37.75,37.75,0,0,0,.55,6.42,38.39,38.39,0,0,0-4.82,59.2,38.42,38.42,0,0,0,17.54,60.83,38.41,38.41,0,0,0,61.54,26,38.43,38.43,0,0,0,51.84,6.86,38.42,38.42,0,0,0,72.82-11,38.39,38.39,0,0,0,11.39-56.82A38.4,38.4,0,0,0,657.67,131.85Z"/><circle class="cls-10" cx="483.61" cy="268.77" r="17.34"/><circle class="cls-10" cx="453.32" cy="312.72" r="11.11"/><rect class="cls-16" x="481.42" y="63.43" width="98" height="128" rx="18.52" ry="18.52"/><rect class="cls-5" x="487.55" y="71.43" width="85.75" height="112" rx="13.85" ry="13.85"/><circle cx="507.42" cy="96.09" r="5.33"/><rect x="520.09" y="93.43" width="38" height="5.33" rx="2.67" ry="2.67"/><circle cx="507.42" cy="127.43" r="5.33"/><rect x="520.09" y="124.76" width="38" height="5.33" rx="2.67" ry="2.67"/><circle cx="507.42" cy="158.76" r="5.33"/><rect x="520.09" y="156.09" width="38" height="5.33" rx="2.67" ry="2.67"/><circle class="cls-10" cx="140.73" cy="461.77" r="17.34"/><circle class="cls-10" cx="182.02" cy="483.72" r="11.11"/><path class="cls-5" d="M96,417.85a13.06,13.06,0,0,0,.58,1.35H96a10,10,0,0,0-.43-1.35l-1.5-4H88.27l-1.49,4a11.71,11.71,0,0,0-.43,1.35h-.58c.22-.45.41-.9.58-1.35l4-10.71c.16-.45.36-.9.47-1.35h.65a12,12,0,0,0,.47,1.35Zm-2.09-4.38-2.72-7.25-2.73,7.25Z"/><path class="cls-5" d="M105,409.84a12.18,12.18,0,0,0-.59,1.35l-2.65,6.66a10,10,0,0,0-.45,1.35h-.58a8.76,8.76,0,0,0-.45-1.35l-2.64-6.66a13.65,13.65,0,0,0-.6-1.35h.54a11.21,11.21,0,0,0,.49,1.35l2.54,6.37c.16.42.3.79.41,1.12.11-.33.2-.58.42-1.12l2.54-6.37a12.6,12.6,0,0,0,.48-1.35Z"/><path class="cls-5" d="M112.68,418.37a12.21,12.21,0,0,1,.09-1.33h0a3.76,3.76,0,0,1-3.58,2.34c-2,0-3.13-.94-3.13-2.52,0-2,1.67-3,5.13-3a14.36,14.36,0,0,1,1.51.06V413c0-2.09-.88-3-2.88-3a3.63,3.63,0,0,0-1.71.42,3.86,3.86,0,0,0-1.1.86l-.25-.32a4.59,4.59,0,0,1,1.21-.9,4,4,0,0,1,1.89-.44c2.23,0,3.26,1,3.26,3.3v4.84c0,.54,0,.92,0,1.37h-.45Zm0-4.08a14.63,14.63,0,0,0-1.51-.06c-3.24,0-4.74.83-4.74,2.63,0,1.37,1,2.14,2.74,2.14a3.61,3.61,0,0,0,3.51-2.34Z"/><path class="cls-5" d="M121.09,419.06a3.23,3.23,0,0,1-1.43.32c-1.58,0-2.46-.83-2.46-2.23v-6.93h-.9a12.76,12.76,0,0,0-1.37,0v-.49a12.35,12.35,0,0,0,1.37.06h.9V408.2a12.1,12.1,0,0,0-.06-1.37h.53a12.1,12.1,0,0,0-.06,1.37v1.64h1.57a12,12,0,0,0,1.35-.06v.49a12.35,12.35,0,0,0-1.35,0h-1.57V417a1.81,1.81,0,0,0,2,2,2.74,2.74,0,0,0,1.3-.3Z"/><path class="cls-5" d="M130.52,414.54c0,2.93-1.66,4.84-4.2,4.84s-4.19-2-4.19-4.88,1.65-4.84,4.19-4.84S130.52,411.64,130.52,414.54Zm-.42,0c0-2.72-1.47-4.5-3.78-4.5s-3.78,1.72-3.78,4.46,1.48,4.5,3.78,4.5S130.1,417.27,130.1,414.54Z"/><path class="cls-5" d="M133.61,412.14a3.35,3.35,0,0,1,3.12-2.46,3.21,3.21,0,0,1,1.42.27l-.14.39a3.39,3.39,0,0,0-1.41-.29,3.22,3.22,0,0,0-2.93,2.88v4.92a12.35,12.35,0,0,0,.05,1.35h-.52c0-.38.05-.74.05-1.35v-6.66c0-.63,0-1-.05-1.35h.47v.7a13,13,0,0,1-.09,1.6Z"/><path class="cls-5" d="M186.76,193c0,.45,0,.92.05,1.35a13.09,13.09,0,0,1-5,1c-3.8,0-6.07-2.61-6.07-7,0-4,2.38-6.8,5.89-6.8a5.94,5.94,0,0,1,3.62,1,6.82,6.82,0,0,1,1.42,1.42l-.42.33A4.85,4.85,0,0,0,185,183a5.36,5.36,0,0,0-3.4-1c-3.28,0-5.46,2.54-5.46,6.43,0,4.18,2.06,6.59,5.66,6.59a13.68,13.68,0,0,0,4.52-.86v-4.75h-3c-.45,0-.81,0-1.37.05V189c.56,0,.92.06,1.37.06h2.07c.45,0,.81,0,1.36-.06,0,.6-.05.94-.05,1.37Z"/><path class="cls-5" d="M190.84,182.65a.42.42,0,0,1-.43.45.44.44,0,0,1-.45-.45.43.43,0,0,1,.45-.43A.41.41,0,0,1,190.84,182.65Zm-.18,3.19c0,.38,0,.72,0,1.35v6.66c0,.61,0,1,0,1.35h-.52a12,12,0,0,0,.06-1.35v-6.66a11.71,11.71,0,0,0-.06-1.35Z"/><path class="cls-5" d="M198.78,195.06a3.15,3.15,0,0,1-1.42.32c-1.58,0-2.47-.83-2.47-2.23v-6.93H194a12.67,12.67,0,0,0-1.36.05v-.49a12.27,12.27,0,0,0,1.36.06h.9V184.2a12.54,12.54,0,0,0,0-1.37h.52c0,.38-.05.74-.05,1.37v1.64h1.56a11.71,11.71,0,0,0,1.35-.06v.49a12.13,12.13,0,0,0-1.35-.05h-1.56V193a1.81,1.81,0,0,0,2.05,2,2.77,2.77,0,0,0,1.3-.3Z"/><path class="cls-5" d="M211,193.85a10.17,10.17,0,0,0,.06,1.35h-.52a12.18,12.18,0,0,0,.05-1.35v-5.47h-9.24v5.47a10.17,10.17,0,0,0,.06,1.35h-.52a12.18,12.18,0,0,0,.05-1.35V183.14a12.18,12.18,0,0,0-.05-1.35h.52a10.17,10.17,0,0,0-.06,1.35V188h9.24v-4.86a12.18,12.18,0,0,0-.05-1.35h.52a10.17,10.17,0,0,0-.06,1.35Z"/><path class="cls-5" d="M222.17,193.85a12.35,12.35,0,0,0,.05,1.35h-.47v-.76c0-.41,0-.93.05-1.35h0a3.58,3.58,0,0,1-3.53,2.29c-2.11,0-3.33-1.24-3.33-3.44v-4.75c0-.63,0-1,0-1.35h.52a11.71,11.71,0,0,0-.06,1.35v4.64c0,2.07,1,3.17,3,3.17a3.19,3.19,0,0,0,3.47-3.2v-4.61c0-.63,0-1-.05-1.35h.52a12.13,12.13,0,0,0-.05,1.35Z"/><path class="cls-5" d="M226,188.65a3.79,3.79,0,0,1,3.82-3c2.52,0,4.16,1.91,4.16,4.88s-1.66,4.86-4.16,4.86a3.81,3.81,0,0,1-3.8-3H226a9.34,9.34,0,0,1,.09,1.3v1.51h-.47c0-.38,0-.74,0-1.35v-11c0-.63,0-1,0-1.35h.52a12,12,0,0,0,0,1.35v4.43a11.47,11.47,0,0,1-.09,1.35Zm7.56,1.87c0-2.76-1.44-4.5-3.74-4.5s-3.76,1.73-3.76,4.5,1.47,4.48,3.76,4.48S233.59,193.27,233.59,190.52Z"/><path class="cls-5" d="M492,214.64a5.54,5.54,0,0,0,.92,1.17,4.91,4.91,0,0,0,3.28,1.16c2.25,0,3.67-1.25,3.67-3.19,0-1.66-1-2.54-3.6-3.28-2.79-.77-3.85-1.76-3.85-3.54,0-2,1.51-3.32,3.87-3.32a4.67,4.67,0,0,1,2.14.49,6.46,6.46,0,0,1,1.51,1.1l-.36.36a4.09,4.09,0,0,0-3.31-1.59c-2.13,0-3.46,1.14-3.46,3,0,1.63.83,2.37,3.71,3.22s3.75,1.76,3.75,3.6c0,2.14-1.64,3.56-4.11,3.56a5.06,5.06,0,0,1-4.5-2.41Z"/><path class="cls-5" d="M503.78,203.52c0,.37,0,.72,0,1.35v11c0,.61,0,1,0,1.35h-.52a12,12,0,0,0,.06-1.35v-11a11.59,11.59,0,0,0-.06-1.35Zm4.38,12.33c.63.58,1.12,1,1.58,1.35h-.86a15.55,15.55,0,0,0-1.28-1.35l-3.62-3.4,3.46-3.28a15.91,15.91,0,0,0,1.31-1.33h.83c-.47.36-.95.75-1.58,1.33l-3.46,3.26Z"/><path class="cls-5" d="M512.6,204.65a.42.42,0,0,1-.43.45.44.44,0,0,1-.45-.45.43.43,0,0,1,.45-.43A.41.41,0,0,1,512.6,204.65Zm-.18,3.19c0,.38,0,.72,0,1.35v6.66c0,.61,0,1,0,1.35h-.52a12,12,0,0,0,.06-1.35v-6.66a11.71,11.71,0,0,0-.06-1.35Z"/><path class="cls-5" d="M516.71,203.52a11.59,11.59,0,0,0-.06,1.35v11a12,12,0,0,0,.06,1.35h-.52c0-.38,0-.74,0-1.35v-11c0-.63,0-1,0-1.35Z"/><path class="cls-5" d="M521,203.52a12,12,0,0,0,0,1.35v11a12.35,12.35,0,0,0,0,1.35h-.52c0-.38,0-.74,0-1.35v-11c0-.63,0-1,0-1.35Z"/><path class="cls-5" d="M524.5,214.64a5.54,5.54,0,0,0,.92,1.17A4.91,4.91,0,0,0,528.7,217c2.25,0,3.67-1.25,3.67-3.19,0-1.66-1-2.54-3.6-3.28-2.79-.77-3.85-1.76-3.85-3.54,0-2,1.51-3.32,3.87-3.32a4.67,4.67,0,0,1,2.14.49,6.46,6.46,0,0,1,1.51,1.1l-.36.36a4.09,4.09,0,0,0-3.31-1.59c-2.13,0-3.46,1.14-3.46,3,0,1.63.83,2.37,3.71,3.22s3.75,1.76,3.75,3.6c0,2.14-1.64,3.56-4.11,3.56a5.06,5.06,0,0,1-4.5-2.41Z"/><path class="cls-5" d="M542.58,217.2c0-.4,0-.76,0-1.35v-4.63c0-2.07-1-3.18-3-3.18a3.21,3.21,0,0,0-3.48,3.22v4.59a12,12,0,0,0,.06,1.35h-.53a12,12,0,0,0,.06-1.35v-11a11.59,11.59,0,0,0-.06-1.35h.53a11.59,11.59,0,0,0-.06,1.35v5a3.57,3.57,0,0,1,3.51-2.25c2.11,0,3.33,1.26,3.33,3.45v4.74a12.45,12.45,0,0,0,.06,1.35Z"/><path class="cls-5" d="M546.21,212.38v.09c0,2.73,1.58,4.53,4,4.53a4.35,4.35,0,0,0,2.55-.77,3.28,3.28,0,0,0,.72-.72l.29.27a4.7,4.7,0,0,1-.68.65,4.61,4.61,0,0,1-2.88.95c-2.61,0-4.41-2-4.41-4.91s1.62-4.87,4.26-4.87,4,1.61,4,4.45v.33Zm7.38-.37c0-2.59-1.26-4-3.55-4s-3.67,1.51-3.81,4Z"/><path class="cls-5" d="M556.4,212.38v.09c0,2.73,1.58,4.53,4,4.53a4.36,4.36,0,0,0,2.56-.77,3.51,3.51,0,0,0,.72-.72l.29.27a4.32,4.32,0,0,1-.69.65,4.57,4.57,0,0,1-2.88.95c-2.61,0-4.41-2-4.41-4.91s1.62-4.87,4.27-4.87,3.94,1.61,3.94,4.45v.33Zm7.38-.37c0-2.59-1.26-4-3.55-4s-3.67,1.51-3.81,4Z"/><path class="cls-5" d="M571.43,217.06a3.22,3.22,0,0,1-1.42.32c-1.59,0-2.47-.83-2.47-2.23v-6.93h-.9a13,13,0,0,0-1.37.05v-.49a12.6,12.6,0,0,0,1.37.06h.9V206.2a12.1,12.1,0,0,0-.06-1.37H568a12.1,12.1,0,0,0-.06,1.37v1.64h1.57a12,12,0,0,0,1.35-.06v.49a12.35,12.35,0,0,0-1.35-.05H568V215a1.81,1.81,0,0,0,2.06,2,2.73,2.73,0,0,0,1.29-.3Z"/><path class="cls-5" d="M558,461.64a5.54,5.54,0,0,0,.92,1.17,4.91,4.91,0,0,0,3.28,1.16c2.25,0,3.67-1.25,3.67-3.19,0-1.66-1-2.54-3.6-3.28-2.79-.77-3.85-1.76-3.85-3.54,0-2,1.51-3.32,3.87-3.32a4.67,4.67,0,0,1,2.14.49,6.46,6.46,0,0,1,1.51,1.1l-.36.36a4.09,4.09,0,0,0-3.31-1.59c-2.13,0-3.46,1.14-3.46,3,0,1.63.83,2.37,3.71,3.22s3.75,1.76,3.75,3.6c0,2.14-1.64,3.56-4.11,3.56a5.06,5.06,0,0,1-4.5-2.41Z"/><path class="cls-5" d="M569.78,450.52c0,.37,0,.72,0,1.35v11c0,.61,0,1,0,1.35h-.52a12,12,0,0,0,.06-1.35v-11a11.59,11.59,0,0,0-.06-1.35Zm4.38,12.33c.63.58,1.12,1,1.58,1.35h-.86a15.55,15.55,0,0,0-1.28-1.35l-3.62-3.4,3.46-3.28a15.91,15.91,0,0,0,1.31-1.33h.83c-.47.36-1,.75-1.58,1.33l-3.46,3.26Z"/><path class="cls-5" d="M578.6,451.65a.42.42,0,0,1-.43.45.44.44,0,0,1-.45-.45.43.43,0,0,1,.45-.43A.41.41,0,0,1,578.6,451.65Zm-.18,3.19c0,.38,0,.72,0,1.35v6.66c0,.61,0,1,0,1.35h-.52a12,12,0,0,0,.06-1.35v-6.66a11.71,11.71,0,0,0-.06-1.35Z"/><path class="cls-5" d="M582.71,450.52a11.59,11.59,0,0,0-.06,1.35v11a12,12,0,0,0,.06,1.35h-.52c0-.38,0-.74,0-1.35v-11c0-.63,0-1,0-1.35Z"/><path class="cls-5" d="M587,450.52a12,12,0,0,0,0,1.35v11a12.35,12.35,0,0,0,0,1.35h-.52c0-.38,0-.74,0-1.35v-11c0-.63,0-1,0-1.35Z"/><path class="cls-5" d="M601.56,461.18a9,9,0,0,1-.87,1.24,5.25,5.25,0,0,1-4.3,2c-3.82,0-6.14-2.65-6.14-7,0-4.07,2.34-6.8,5.83-6.8a5.52,5.52,0,0,1,4.09,1.45,7.21,7.21,0,0,1,1.26,1.73l-.47.27a5.36,5.36,0,0,0-1.11-1.74,5.11,5.11,0,0,0-3.79-1.34c-3.25,0-5.4,2.51-5.4,6.43,0,4.14,2.15,6.59,5.73,6.59a4.94,4.94,0,0,0,4-1.8,7.88,7.88,0,0,0,.82-1.26Z"/><path class="cls-5" d="M611.83,459.54c0,2.93-1.65,4.84-4.19,4.84s-4.2-2-4.2-4.88,1.66-4.84,4.2-4.84S611.83,456.64,611.83,459.54Zm-.41,0c0-2.72-1.48-4.5-3.78-4.5s-3.78,1.72-3.78,4.46,1.47,4.5,3.78,4.5S611.42,462.27,611.42,459.54Z"/><path class="cls-5" d="M621.84,462.85c0,.61,0,1,0,1.35h-.46v-.76c0-.41,0-.93.05-1.35h0a3.58,3.58,0,0,1-3.53,2.29c-2.11,0-3.33-1.24-3.33-3.44v-4.75a11.71,11.71,0,0,0-.06-1.35h.52c0,.38,0,.72,0,1.35v4.64c0,2.07,1,3.17,3,3.17a3.2,3.2,0,0,0,3.48-3.2v-4.61a11.71,11.71,0,0,0-.06-1.35h.52c0,.38,0,.72,0,1.35Z"/><path class="cls-5" d="M632.14,464.2c0-.4.05-.76.05-1.35v-4.63c0-2.07-1-3.18-3-3.18a3.21,3.21,0,0,0-3.48,3.22v4.59a12,12,0,0,0,.06,1.35h-.52c0-.38.05-.74.05-1.35v-6.66c0-.63,0-1-.05-1.35h.46v.75a12.08,12.08,0,0,1-.07,1.35h0a3.59,3.59,0,0,1,3.53-2.28c2.11,0,3.33,1.26,3.33,3.45v4.74a12.45,12.45,0,0,0,.06,1.35Z"/><path class="cls-5" d="M640.61,464.06a3.15,3.15,0,0,1-1.42.32c-1.58,0-2.47-.83-2.47-2.23v-6.93h-.9a12.67,12.67,0,0,0-1.36,0v-.49a12.27,12.27,0,0,0,1.36.06h.9V453.2a12.54,12.54,0,0,0-.05-1.37h.52c0,.38-.05.74-.05,1.37v1.64h1.57a12,12,0,0,0,1.35-.06v.49a12.35,12.35,0,0,0-1.35,0h-1.57V462a1.81,1.81,0,0,0,2.05,2,2.77,2.77,0,0,0,1.3-.3Z"/><path class="cls-5" d="M642.07,459.38v.09c0,2.73,1.59,4.53,4,4.53a4.35,4.35,0,0,0,2.55-.77,3.28,3.28,0,0,0,.72-.72l.29.27a4.7,4.7,0,0,1-.68.65,4.59,4.59,0,0,1-2.88.95c-2.61,0-4.41-2-4.41-4.91s1.62-4.87,4.26-4.87,4,1.61,4,4.45v.33Zm7.38-.37c0-2.59-1.26-4-3.54-4s-3.68,1.51-3.82,4Z"/><path class="cls-5" d="M653,457.14a3.35,3.35,0,0,1,3.12-2.46,3.24,3.24,0,0,1,1.42.27l-.15.39a3.31,3.31,0,0,0-1.4-.29,3.24,3.24,0,0,0-2.94,2.88v4.92a12,12,0,0,0,.06,1.35h-.52c0-.38.05-.74.05-1.35v-6.66c0-.63,0-1-.05-1.35H653v.7a11.24,11.24,0,0,1-.09,1.6Z"/><circle class="cls-17" cx="109.73" cy="327.43" r="67"/><path class="cls-1" d="M88.44,384.59V365.12a2.48,2.48,0,0,0-5,0v19.47Z"/><path class="cls-1" d="M137.64,384.59V365.12a2.48,2.48,0,0,0-4.95,0v19.47Z"/><path class="cls-1" d="M132.69,390.13s0,.07,0,.11S132.7,390.17,132.69,390.13Z"/><path class="cls-1" d="M132.69,390.24h0s0-.07,0-.11Z"/><path class="cls-1" d="M138.74,308c-5.4,20.49-12.67,28.45-28.31,28.45s-23.31-8-28.31-28.45c-3.72-15.26,12.68-28.45,28.31-28.45S142.75,292.8,138.74,308Z"/><ellipse class="cls-3" cx="101.62" cy="311.37" rx="2.28" ry="2.3"/><ellipse class="cls-3" cx="118.13" cy="311.37" rx="2.28" ry="2.3"/><rect class="cls-1" x="102.63" y="334.12" width="15.85" height="15.92"/><line class="cls-18" x1="90.92" y1="356.18" x2="90.92" y2="375.58"/><line class="cls-18" x1="130.53" y1="369.61" x2="130.53" y2="356.84"/><path class="cls-19" d="M84.41,341.6h5.17a.93.93,0,0,1,.93.93v33.63a.93.93,0,0,1-.93.93H80.8a.93.93,0,0,1-.93-.93v-30a4.55,4.55,0,0,1,4.55-4.55Z"/><path class="cls-20" d="M143.47,297.7c0,9.39-3.56,18.45-9.8,24.48-1.89,1.81-.48-9.66-2.31-13.27-.93-1.83-5.31,4.51-6.39,2.45a31.32,31.32,0,0,0-3.19-5.11c-1-1.24-3.72,2.55-4.76,1.52-2.09-2.07-4.25-3.51-6.46-3.51-2.55,0-5,1.72-7.41,4.07-1.05,1-4.13-3.27-5.14-2.08a28.93,28.93,0,0,0-3.34,5.31c-1.09,2.11-5-4.08-5.9-2.32-1.6,3.08-.25,14.72-2,12.94-5.76-6-9.16-15.52-9.16-24.48,0-18.27,14.75-28.6,32.93-28.6S143.47,279.43,143.47,297.7Z"/><line class="cls-18" x1="130.16" y1="356.84" x2="130.16" y2="376.24"/><path class="cls-19" d="M131.5,342.26h8.78a.93.93,0,0,1,.93.93v33.63a.93.93,0,0,1-.93.93h-5.17a4.55,4.55,0,0,1-4.55-4.55v-30a.93.93,0,0,1,.93-.93Z" transform="translate(271.78 720.01) rotate(-180)"/><path class="cls-19" d="M131.6,384.59,137,346.82c0-4.62-6.35-8.09-13.13-7.16l-4.66.64c0,4.26-2.3,5.25-8.68,5.25s-8.63-1-8.68-5.25l-4.62-.63c-6.78-.94-12.87,1.83-12.87,6.46l5.24,38.46Z"/></g></g>
</svg>