<svg xmlns="http://www.w3.org/2000/svg" viewBox="0 0 483.35 274.25">
<defs><style>.cls-1{fill:#c6c6c6;}.cls-2{fill:#fff6e9;}.cls-3{fill:#680020;}.cls-4{fill:#4f3110;}.cls-5{fill:#0d809b;}.cls-6{fill:#0da3cc;}.cls-20,.cls-26,.cls-7{fill:none;}.cls-7{stroke:#0d809b;}.cls-11,.cls-20,.cls-26,.cls-7{stroke-miterlimit:10;}.cls-8{fill:#290256;}.cls-9{fill:#ff4848;}.cls-10{fill:#703d09;}.cls-11{stroke:#231815;stroke-linecap:round;}.cls-12{fill:#62c8d3;}.cls-13{fill:#b59259;}.cls-14{fill:#a1acff;}.cls-15{fill:#84581f;}.cls-16{fill:#2518a0;}.cls-17{fill:#fefefe;}.cls-18{fill:#1e1500;}.cls-19{fill:#f33;}.cls-20{stroke:#f33;}.cls-21{fill:#fff;}.cls-22{fill:#002c6b;}.cls-23{fill:#1e1051;}.cls-24{fill:#b29669;}.cls-25{fill:#ddbb7f;}.cls-26{stroke:#b29669;}.cls-27{fill:#0057d6;}.cls-28{fill:#ffff76;}</style></defs>
<title>people</title>
<g id="top">
    <g id='silver'>
    <path class="cls-1" d="M430.21,123.14c10.47,10.75,2.4,16,2.4,16,11.24-3.27,6.87-13.22,6.87-13.22Z"/>
    <polygon class="cls-3" points="440 262.25 449.59 263.55 450.29 195.79 432.96 190.6 440 262.25"/>
    <polygon class="cls-2" points="438.68 139.24 454.33 143.58 454.47 130.27 438.81 126.01 438.68 139.24"/>
    <polygon class="cls-3" points="449.59 263.55 460.09 266.99 460.8 198.94 443.33 193.7 449.59 263.55"/>
    <path class="cls-4" d="M434,274.25h26l.12-9.93-18.48-2c-2.64-1-7.38-.44-8.64,2-1,1.84-1.93,4.48-1.21,6.42C432.36,272.22,433.18,274,434,274.25Z"/>
    <path class="cls-2" d="M461.28,194.52h0c-2.8-1.41-4.44-4.1-3.66-6l6.23-15.26c.78-1.92,3.7-2.35,6.53-1h0c2.84,1.39,3.08,3.52,3.71,6l-6.29,15.32C467,195.54,464.1,195.94,461.28,194.52Z"/>
    <path class="cls-5" d="M454.68,177.76l19.38-1-12.35-24.72c-2.35-4.71-8.56-8.23-13.85-7.9h0c-5.27.34-7.65,4.39-5.34,9.06Z"/>
    <path class="cls-6" d="M431.12,211.25l31.31.23.67-63.94c0-3-3.21-6.43-7.22-7.53l-5.2-1.44c-10.45-2.88-18.92,5.23-19,13.16Z"/>
    <path class="cls-1" d="M456.16,112c-.26,24.57-3.72,20.36-9.08,30.88,0,0,34.18-11.41,34.92-20.65.66-8.22,1.17-12.86-2-14.41S456.24,104,456.16,112Z"/>
    <path class="cls-2" d="M468.44,117.38c11.94,9.93-4.6,10.89-4.6,10.89Z"/>
    <path class="cls-2" d="M420,111.25c-.05,4.8-1.77,5.46-2.57,9.69-2,10.48,27.88,9.88,30,9.74,6.57-.43,32-2.32,32.19-16.62s-13-29.74-31.67-34.43C429.61,75,420.14,97.31,420,111.25Z"/>
    <path class="cls-1" d="M419,105.25c-1.42-3.88-1.5-12.6-.09-16.2C420,86.25,431,75.25,446.54,75c20.33-.34,37,19.9,36.81,35,0,2.33-1.27,7.22-2.16,10-.26.85-.44,1.5-1.4,1.85l-9.37,3.36,5.5-11.58-3.68,8-12.43,2-14-21.06-5.25,4,.1-5.53-5.3,5.49.31-5.35-5.45,2.68-1.68-4.4-3.47,4.37L424,99.28l-1,4c-.55.63-1.73-2.79-2-2Z"/>
    <circle class="cls-8" cx="438.34" cy="110.14" r="2.58"/>
    <path class="cls-8" d="M422,111.72a2.59,2.59,0,1,0-1.72-4.5,34.32,34.32,0,0,0-.26,3.55A2.54,2.54,0,0,0,422,111.72Z"/>
    <g id='silver_arm'>
      <path class="cls-2" d="M404.8,173.24l-1.42-1a3.91,3.91,0,0,1-1.58-4.1,4.15,4.15,0,0,1,1.9-2.36l14.4-10c1.82-1.27,5.15-.84,7.43,1h0c2.29,1.8,1.45,3.49.83,5.55l-14.49,10C410.06,173.5,407.05,175,404.8,173.24Z"/>
      <path class="cls-6" d="M417.23,155.93l15.45,14.76,19.74-15.81c3.81-2.28,3.36-7.47-1-11.57h0c-4.36-4.08-10.93-5.52-14.7-3.23Z"/>
      <line class="cls-7" x1="450.7" y1="155.91" x2="434.5" y2="167.75"/>
    </g>
  </g>
  <g id='woman'>
    <path class="cls-2" d="M211.12,197.38h0a3.14,3.14,0,0,0,3.93-3.08l.28-16.94a4.68,4.68,0,0,0-3.8-4.52h0a3.2,3.2,0,0,0-3.9,3.15l-.28,18.82C207.31,196.92,209,197,211.12,197.38Z"/>
    <path class="cls-2" d="M218.78,198.9h0a3.17,3.17,0,0,0,4-3.1l.29-17.06a4.72,4.72,0,0,0-3.85-4.55h0a3.22,3.22,0,0,0-4,3.17L215,194.3A4.83,4.83,0,0,0,218.78,198.9Z"/>
    <path class="cls-9" d="M215.32,202.16l-2.71-.54a.23.23,0,0,1-.16-.23l.52-3.55-1,5.41s-8,0-8,0a8.55,8.55,0,0,1,0-1.53s.09-4.91,2.5-7c0,0,9.53-.08,9.53,0l-.51,7.27A.14.14,0,0,1,215.32,202.16Z"/>
    <path class="cls-9" d="M220.2,203.25l.1-4-1.1,4h-8c-.1,0,.55-6.41,3-8.5h8.6c.2.5-.6,8.5-.6,8.5A14.83,14.83,0,0,1,220.2,203.25Z"/>
    <path class="cls-10" d="M230.67,108.78l-23-2.64a20.69,20.69,0,0,1-18.09-20.49l.31-18.6c.27-16.29,13.65-28.8,30.32-27.91h0c17.19.91,31.27,15.63,31,32.83l-.34,19.66C250.65,102.35,241.53,110,230.67,108.78Z"/>
    <path class="cls-2" d="M244.89,81.55C236,101.25,225,101.25,209.48,98,202,96.36,195,95.25,191.6,76.75c-3.75-20.44,8.56-38.57,29.88-37.44C243.65,40.49,246.09,78.89,244.89,81.55Z"/>
    <path class="cls-11" d="M204.45,75.82a2.34,2.34,0,0,1-2.57,2.32,2.77,2.77,0,0,1-2.48-2.76A2.34,2.34,0,0,1,202,73.06,2.76,2.76,0,0,1,204.45,75.82Z"/>
    <path class="cls-2" d="M243.33,78.85c9.12,7.45-3.63,11.54-3.63,11.54Z"/>
    <path class="cls-11" d="M223.8,75.47a2.4,2.4,0,0,1-2.66,2.36A2.83,2.83,0,0,1,218.57,75a2.39,2.39,0,0,1,2.65-2.35A2.82,2.82,0,0,1,223.8,75.47Z"/>
    <path class="cls-10" d="M249.84,68.25c.21-18.06-13.49-29.74-30.22-30.58-16.25-.82-29.32,13.47-29.7,30.58Z"/>
    <path class="cls-2" d="M190.71,129.18h0a3.62,3.62,0,0,0,5.23-.09l12.21-14.82a4,4,0,0,0-.73-5.44h0a3.73,3.73,0,0,0-5.34.2L190,123.82A4,4,0,0,0,190.71,129.18Z"/>
    <polygon class="cls-2" points="224.95 107.47 210.02 105.77 210.13 99.39 225.06 101 224.95 107.47"/>
    <path class="cls-9" d="M220.67,142.51l-8.29-1.21c-3.4-.49-11.16-.35-11.1-3.71L199.15,110a5.42,5.42,0,0,1,6.17-5.38l23.87,2.7a7.14,7.14,0,0,1,6.28,7l-2.47,24C232.94,141.7,224.15,143,220.67,142.51Z"/>
    <path class="cls-2" d="M222.49,134.26h0a3.59,3.59,0,0,0,5-1.75l7.14-18.85a4.27,4.27,0,0,0-2.42-5.25h0a3.68,3.68,0,0,0-5.09,1.86l-7,18.76A4.31,4.31,0,0,0,222.49,134.26Z"/>
    <polygon class="cls-12" points="208.94 131.85 183.53 123.44 184.08 89.7 209.53 97.32 208.94 131.85"/>
    <polygon class="cls-12" points="208.94 131.85 235.76 130.39 236.37 95.02 209.53 97.32 208.94 131.85"/>
    <path class="cls-13" d="M208.93,132.49h0a1.49,1.49,0,0,1-1.25-1.45l.55-33.14a1.16,1.16,0,0,1,1.3-1.14h0a1.43,1.43,0,0,1,1.26,1.42l-.56,33.21A1.1,1.1,0,0,1,208.93,132.49Z"/>
    <path class="cls-14" d="M234.33,181.25H198.67c-2.3-.41-4-1.81-3.63-4l6.33-40,31.57.52,5.44,39.61C238.71,179.78,237,181.39,234.33,181.25Z"/>
    <path id='woman_right_arm' class="cls-2" d="M190.52,131.42h0a3.29,3.29,0,0,0,4.52-2.19l4-15.76a4.22,4.22,0,0,0-2.72-4.88h0a3.37,3.37,0,0,0-4.54,2.28l-4,15.66A4.28,4.28,0,0,0,190.52,131.42Z"/>
    <path id='woman_left_arm' class="cls-2" d="M224.56,134.77h0a3.43,3.43,0,0,0,2.87-4.38l-4.25-17.09a4.39,4.39,0,0,0-4.76-3.3h0a3.47,3.47,0,0,0-2.82,4.4l4.19,17A4.5,4.5,0,0,0,224.56,134.77Z"/>
  </g>
  <g id='man'>
    <path class="cls-15" d="M155.5,203.25H142v-9l6.92.37c3.71.71,6.69,2.47,6.62,6.4Z"/>
    <path class="cls-15" d="M139.54,203.25h-13.3l.15-11,6.77,1.3c3.6.7,6.48,2.39,6.42,6.25Z"/>
    <g id='man_face'>
      <path d="M114.76,55.08c-.72,21,11.61,29.11,26.6,30.47,15.42,1.39,26.54-9.56,27-25.88Z"/>
      <path class="cls-2" d="M118.34,65.86c4,21.5,11.38,21,30.76,22.81,6.91.64,19-6.31,19.33-26.69s-10.83-31-29.74-31.74C120.44,29.56,117.85,63.27,118.34,65.86Z"/>
      <path d="M170.31,60.25a.38.38,0,0,0,0-.15c-1.82-6.58.64-11.38-3.58-16.28-2.69-3.13-1.51-7.68-8.13-9.39-2.74-.71-5-3.07-8.08-4.08-2.64-.88-3.7-3.43-8.27-1.63-5.33,2.11-10-3.48-15.38,4.43-2.26,3.32-5.73,1.14-8,8.56-.48,1.59-1,3.37-2.15,4.44-3.33,3-1.91,6.69-2,10.38v.15l3.78,6.85,4.41,7.82,7.24-13.68L132,51.84l14.31,5.21L137.61,51l30.74,11.16Z"/>
      <path class="cls-2" d="M118.49,63.53C111.23,68.84,121,74.3,121,74.3Z"/>
      <path d="M160,68.91a2.23,2.23,0,0,1-2.37,2.26,2.55,2.55,0,0,1-2.28-2.6,2.23,2.23,0,0,1,2.36-2.27A2.56,2.56,0,0,1,160,68.91Z"/>
      <path d="M145,67.81a2.18,2.18,0,0,1-2.3,2.24,2.51,2.51,0,0,1-2.22-2.57,2.19,2.19,0,0,1,2.3-2.23A2.49,2.49,0,0,1,145,67.81Z"/>
    </g>
    <polygon class="cls-16" points="153.29 196.25 141.89 196.25 144.97 143.43 138 196.25 126.33 196.25 127.34 126.91 154.36 130.47 153.29 196.25"/>
    <path class="cls-2" d="M165.77,119.54h0a3.63,3.63,0,0,1-4.92-1.38l-10.7-16.9a3.66,3.66,0,0,1,.83-5h0a3.5,3.5,0,0,1,4.82,1.27l10.81,17A3.63,3.63,0,0,1,165.77,119.54Z"/>
    <path class="cls-17" d="M138.24,137.13l7.22,1c3,.41,12.46-1.57,12.53-5.61l.45-32c.06-4-2.38-7.55-5.44-7.84l-20.79-2c-2.92-.28-5.33,2.67-5.39,6.58l-.43,33.17C126.33,134.33,135.28,136.73,138.24,137.13Z"/>
    <path d="M147.66,117.51a1,1,0,0,1-1.16,1.07,1.34,1.34,0,0,1-1.11-1.34,1,1,0,0,1,1.15-1.07A1.34,1.34,0,0,1,147.66,117.51Z"/>
    <path class="cls-2" d="M137.06,116.74h0a3.67,3.67,0,0,1-4.19-2.75L127.5,95.4a3.35,3.35,0,0,1,2.14-4.29h0a3.56,3.56,0,0,1,4.17,2.65l5.43,18.69A3.29,3.29,0,0,1,137.06,116.74Z"/>
    <polygon class="cls-12" points="148.92 117.67 172.88 115.68 173.42 82.26 149.44 84.99 148.92 117.67"/>
    <polygon class="cls-12" points="148.92 117.67 126.15 110.27 126.65 78.3 149.44 84.99 148.92 117.67"/>
    <path class="cls-13" d="M148.91,118.27h0a1,1,0,0,0,1.16-1.07l.5-31.42a1.28,1.28,0,0,0-1.12-1.31h0a1.08,1.08,0,0,0-1.17,1.1l-.49,31.35A1.33,1.33,0,0,0,148.91,118.27Z"/>
    <path class="cls-2" d="M165.89,121.77h0a4,4,0,0,1-4.2-3.26l-3.26-16.09a3.35,3.35,0,0,1,2.68-4.13h0a3.89,3.89,0,0,1,4.19,3.17l3.31,16.2A3.31,3.31,0,0,1,165.89,121.77Z"/>
    <path class="cls-2" d="M135.3,116.74h0a4,4,0,0,1-2.28-4.66l4.07-14.78a3.08,3.08,0,0,1,4.17-2.11h0a4,4,0,0,1,2.31,4.65l-4.12,14.86A3,3,0,0,1,135.3,116.74Z"/>
    <path d="M147.53,126a1,1,0,0,1-1.16,1.06,1.35,1.35,0,0,1-1.12-1.35,1,1,0,0,1,1.16-1.06A1.34,1.34,0,0,1,147.53,126Z"/>
  </g>
  <g id='suit'>
    <g id='suit_face'>
      <path class="cls-18" d="M50.48,30.11c-.22,15.33-6,28-12.9,28.24-6.7.27-11.88-11.48-11.67-26.24S31.62,4.71,38.34,3.88,50.7,14.78,50.48,30.11Z"/>
      <path class="cls-2" d="M48.13,35.78c7.3,6-2.9,11.78-2.9,11.78Z"/>
      <path class="cls-2" d="M48.58,38.33C45,59.25,32,59.54,19.06,59.34,13,59.25,5.13,56.33,4,38.25c-1-16,10-29,24-29C45.71,9.25,49.07,35.46,48.58,38.33Z"/>
      <path class="cls-19" d="M50.24,37,47.53,34.8l-.65,1.08,2.69,2.18a.52.52,0,0,0,.77-.2h0A.69.69,0,0,0,50.24,37Z"/>
      <path class="cls-18" d="M48,27.69c0-4.73,4.5-8.19.2-14.21C45.37,9.54,49.63,10.25,44,6.25c-2-1.39-1-5-6.31-5.58-1.76-.19-4.11.59-5.87.3S31.4-1,26.38.9,20.21.49,18.21.76c-2.44.33-5,6.79-6,5.69C9.8,3.66,5.37,15.77,5.34,18.19c0,0-1.14,8-1.23,12.18l3.05-5.12L17,14.45l22.48,3.8Z"/>
      <polygon class="cls-20" points="15.17 41.25 8.35 41.25 8.45 33.25 15.27 33.25 15.17 41.25"/>
      <polygon class="cls-20" points="28.23 41.25 21.13 41.25 21.23 33.25 28.33 33.25 28.23 41.25"/>
      <path class="cls-19" d="M47.32,34.77,28.8,36.15v1.26l19-1.39v-.66A.53.53,0,0,0,47.32,34.77Z"/>
      <polygon class="cls-19" points="21.69 36.25 15.72 36.25 15.7 37.25 21.67 37.25 21.69 36.25"/>
      <polygon class="cls-19" points="8.41 36.25 4 36.25 4 37.25 8.39 37.25 8.41 36.25"/>
    </g>
    <polygon points="39.52 168.25 29.68 169.25 23.59 122.66 20 168.25 10.1 169.25 10.88 105.67 40.37 106.69 39.52 168.25"/>
    <polygon class="cls-2" points="28.34 69.98 16.25 70.24 16.42 57.96 28.51 57.46 28.34 69.98"/>
    <path class="cls-21" d="M41.31,115.25H8.83L9.42,70c0-2.47,1.66-4.52,3.64-4.58l24.4-.73C40,64.63,42,67,42,70.07Z"/>
    <polygon class="cls-19" points="24.24 71.31 19.22 71.41 19.3 65.24 24.33 65.09 24.24 71.31"/>
    <polygon class="cls-19" points="23.88 97.42 18.86 97.31 21.22 71.37 22.22 71.35 23.88 97.42"/>
    <path d="M18.63,116.25H8.83l.6-46.6c0-2.27,1.52-4.16,3.34-4.21l6.53-.2L21,89.93Z"/>
    <path d="M41.31,116.25H23.65L22,89.94l2.36-24.85,13.44-.4c2.35-.07,4.23,2.17,4.19,5Z"/>
    <path d="M33.09,88.73h0a2.63,2.63,0,0,1-1.33-3.16L36.41,68.3a2.17,2.17,0,0,1,2.67-1.75h0a2.57,2.57,0,0,1,1.36,3.16L35.73,87.08A2.07,2.07,0,0,1,33.09,88.73Z"/>
    <path d="M4.29,87.58h0A2.86,2.86,0,0,1,4,84.2l8.7-13.69a1.73,1.73,0,0,1,2.76-.46h0a2.86,2.86,0,0,1,.28,3.44L7,87.19A1.66,1.66,0,0,1,4.29,87.58Z"/>
    <polygon class="cls-12" points="19.69 88.48 0 83.63 0.43 51.24 20.15 55.05 19.69 88.48"/>
    <polygon class="cls-12" points="19.69 88.48 40.84 83.61 41.32 49.05 20.15 55.05 19.69 88.48"/>
    <path class="cls-13" d="M19.68,89.1h0a1.13,1.13,0,0,1-1-1.24l.44-32.07a1.21,1.21,0,0,1,1-1.28h0a1.05,1.05,0,0,1,1,1.19L20.7,87.87A1.15,1.15,0,0,1,19.68,89.1Z"/>
    <path d="M6.51,87.06l3-15.43L6,69.18,2.81,86A2.46,2.46,0,0,0,4.2,88.87C5.22,89.17,6.26,88.36,6.51,87.06Z"/>
    <path class="cls-2" d="M11.28,70.08C10.4,72,8.51,72.63,7.05,71.59a4.38,4.38,0,0,1-1-5.24c.87-1.87,2.75-2.57,4.21-1.55A4.37,4.37,0,0,1,11.28,70.08Z"/>
    <path d="M34.93,85.58,31.14,69.92,26.83,70l4.11,17a2,2,0,0,0,2.57,1.68A2.66,2.66,0,0,0,34.93,85.58Z"/>
    <path class="cls-2" d="M32.18,67.38c0,2.22-1.53,4-3.35,4.08s-3.24-1.72-3.21-3.91,1.51-4,3.32-4.09S32.21,65.16,32.18,67.38Z"/>
    <path class="cls-15" d="M7.09,177.25H19.82l.13-9H12.89c-3.89,0-5.71,2.1-5.76,6Z"/>
    <path class="cls-15" d="M25.87,177.25H39.39l.14-9H32c-4,0-6.07,2-6.12,6Z"/>
  </g>
  <g id='gold'>
    <path class="cls-2" d="M362.23,173.24l1.42-1a3.91,3.91,0,0,0,1.58-4.1,4.15,4.15,0,0,0-1.9-2.36l-14.4-10c-1.82-1.27-5.14-.84-7.43,1h0c-2.29,1.8-1.45,3.49-.83,5.55l14.5,10C357,173.5,360,175,362.23,173.24Z"/>
    <polygon class="cls-22" points="327.03 262.25 317.45 263.55 316.75 195.79 334.07 190.6 327.03 262.25"/>
    <polygon class="cls-2" points="328.36 139.24 312.7 143.58 312.57 130.27 328.22 126.01 328.36 139.24"/>
    <polygon class="cls-22" points="317.45 263.55 306.94 266.99 306.24 198.94 323.71 193.7 317.45 263.55"/>
    <path class="cls-23" d="M333,274.25H307l-.12-9.93,18.48-2c2.64-1,7.38-.44,8.64,2,1,1.84,1.94,4.48,1.22,6.42C334.67,272.22,333.85,274,333,274.25Z"/>
    <path class="cls-2" d="M305.75,194.52h0c2.81-1.41,4.45-4.1,3.67-6l-6.23-15.26c-.79-1.92-3.71-2.35-6.54-1h0c-2.83,1.39-3.07,3.52-3.71,6l6.29,15.32C300,195.54,302.94,195.94,305.75,194.52Z"/>
    <path class="cls-24" d="M312.36,177.76l-19.39-1,12.35-24.72c2.35-4.71,8.56-8.23,13.85-7.9h0c5.27.34,7.65,4.39,5.34,9.06Z"/>
    <path class="cls-25" d="M349.8,155.93l-15.44,14.76-19.74-15.81c-3.82-2.28-3.37-7.47,1-11.57h0c4.35-4.08,10.93-5.52,14.69-3.23Z"/>
    <path class="cls-25" d="M335.91,211.25l-31.31.23-.66-63.94c0-3,3.2-6.43,7.21-7.53l5.21-1.44c10.44-2.88,18.91,5.23,19,13.16Z"/>
    <line class="cls-26" x1="316.34" y1="155.91" x2="332.53" y2="167.75"/>
    <g id='gold_face'>
      <path class="cls-2" d="M299.59,109.38c-11.94,9.93,4.6,10.89,4.6,10.89Z"/>
      <path class="cls-2" d="M347,111.25c.05,4.8,1.77,5.46,2.57,9.69,2,10.48-27.88,9.88-30,9.74-6.58-.43-32.05-2.32-32.2-16.62s13-29.74,31.67-34.43C337.43,75,346.89,97.31,347,111.25Z"/>
      <circle class="cls-27" cx="328.7" cy="110.14" r="2.58"/>
      <path class="cls-27" d="M345,111.72a2.59,2.59,0,1,1,1.73-4.5c.15,1.23.23,2.41.26,3.55A2.56,2.56,0,0,1,345,111.72Z"/>
      <path class="cls-28" d="M348,117.25c2-3,1-6,.5-10.25C347,94.25,344.29,76.7,325,75.25s-32.61,4.94-37,19c-5,16-1,24,1,27,.25.38,6,4,6,4l2-5,1-5,13,10,10.92-28.68L337.28,94l2.85,4.54c.52.89,5.63,9.84,5.87,10.75Z"/>
      <path class="cls-28" d="M288.24,92.27c-40.47,22.75-.52,55.89-.52,55.89-18.73-32.9,4.19-49.43,4.19-49.43Z"/>
    </g>
  </g>
</g>
</svg>