<svg xmlns="http://www.w3.org/2000/svg" viewBox="0 0 140 140.52"><defs><style>.cls-1{fill:#44bee9;}.cls-2{fill:#0780a3;}</style></defs><title>icon</title><g id="レイヤー_2" data-name="レイヤー 2"><g id="レイヤー_6" data-name="レイヤー 6"><g id="アイコン"><path class="cls-1" d="M70,140.52a69.15,69.15,0,0,1-49.5-20.73A70.72,70.72,0,0,1,0,69.74a8,8,0,0,1,8-8.06,8,8,0,0,1,8,8.06C16,99.88,40.2,124.39,70,124.39s54.05-24.51,54.05-54.65A54.46,54.46,0,0,0,79.85,16a8,8,0,0,1-6.4-9.38A8,8,0,0,1,82.73.13C115.92,6.3,140,35.58,140,69.74a70.72,70.72,0,0,1-20.5,50.05A69.15,69.15,0,0,1,70,140.52Z"/><path class="cls-2" d="M70,112.85c-23.51,0-42.63-19.34-42.63-43.11S46.49,26.64,70,26.64a42.57,42.57,0,0,1,31.21,13.73,8.13,8.13,0,0,1-.41,11.4,7.92,7.92,0,0,1-11.27-.41A26.29,26.29,0,0,0,70,42.76a27,27,0,0,0,0,54A26.5,26.5,0,0,0,90.55,87a7.92,7.92,0,0,1,11.23-1,8.11,8.11,0,0,1,1,11.35A42.34,42.34,0,0,1,70,112.85Z"/></g></g></g></svg>